<svg width="410" height="555" viewBox="0 0 410 555" fill="none" xmlns="http://www.w3.org/2000/svg">
<path d="M396.184 35.361L398.61 370.445L207.423 540.148L13.4039 373.234L10.9775 38.1502C173.09 3.29283 257.487 2.41614 396.184 35.361Z" stroke="white" stroke-width="21"/>
<path d="M75 206.813C167.974 124.011 223.086 106.529 335 206.813C229.396 297.498 172.515 300.613 75 206.813Z" stroke="white" stroke-width="11"/>
<path fill-rule="evenodd" clip-rule="evenodd" d="M205.5 237C224.002 237 239 223.792 239 207.5C239 191.208 224.002 178 205.5 178C186.998 178 172 191.208 172 207.5C172 223.792 186.998 237 205.5 237ZM205 221.179C213.837 221.179 221 214.871 221 207.09C221 199.308 213.837 193 205 193C196.163 193 189 199.308 189 207.09C189 214.871 196.163 221.179 205 221.179Z" fill="white"/>
</svg>
