<svg width="1201" height="817" viewBox="0 0 1201 817" fill="none" xmlns="http://www.w3.org/2000/svg">
<rect width="1201" height="817" fill="#1E1E1E"/>
<g clip-path="url(#clip0_0_1)">
<rect width="1201" height="817" fill="black"/>
<path fill-rule="evenodd" clip-rule="evenodd" d="M87 128.333C111.853 128.333 132 109.231 132 85.6667C132 62.1025 111.853 43 87 43C62.1472 43 42 62.1025 42 85.6667C42 109.231 62.1472 128.333 87 128.333ZM87.1666 120.215C107.325 120.215 123.667 104.721 123.667 85.6074C123.667 66.4943 107.325 51 87.1666 51C67.0082 51 50.6666 66.4943 50.6666 85.6074C50.6666 104.721 67.0082 120.215 87.1666 120.215Z" fill="white"/>
<path fill-rule="evenodd" clip-rule="evenodd" d="M1116 273.333C1140.85 273.333 1161 254.231 1161 230.667C1161 207.103 1140.85 188 1116 188C1091.15 188 1071 207.103 1071 230.667C1071 254.231 1091.15 273.333 1116 273.333ZM1116.17 265.215C1136.32 265.215 1152.67 249.721 1152.67 230.607C1152.67 211.494 1136.32 196 1116.17 196C1096.01 196 1079.67 211.494 1079.67 230.607C1079.67 249.721 1096.01 265.215 1116.17 265.215Z" fill="white"/>
<path fill-rule="evenodd" clip-rule="evenodd" d="M1016 513.333C1040.85 513.333 1061 494.231 1061 470.667C1061 447.103 1040.85 428 1016 428C991.147 428 971 447.103 971 470.667C971 494.231 991.147 513.333 1016 513.333ZM1016.17 505.215C1036.32 505.215 1052.67 489.721 1052.67 470.607C1052.67 451.494 1036.32 436 1016.17 436C996.008 436 979.667 451.494 979.667 470.607C979.667 489.721 996.008 505.215 1016.17 505.215Z" fill="white"/>
<path fill-rule="evenodd" clip-rule="evenodd" d="M1102 754.333C1126.85 754.333 1147 735.231 1147 711.667C1147 688.103 1126.85 669 1102 669C1077.15 669 1057 688.103 1057 711.667C1057 735.231 1077.15 754.333 1102 754.333ZM1102.17 746.215C1122.32 746.215 1138.67 730.721 1138.67 711.607C1138.67 692.494 1122.32 677 1102.17 677C1082.01 677 1065.67 692.494 1065.67 711.607C1065.67 730.721 1082.01 746.215 1102.17 746.215Z" fill="white"/>
<path d="M1074 123L1102.5 196" stroke="white" stroke-width="18"/>
<path d="M1096 264L1081 291" stroke="white" stroke-width="9"/>
<path fill-rule="evenodd" clip-rule="evenodd" d="M271.5 409.563C284.479 409.563 295 399.587 295 387.281C295 374.976 284.479 365 271.5 365C258.521 365 248 374.976 248 387.281C248 399.587 258.521 409.563 271.5 409.563ZM271.587 405.323C282.114 405.323 290.648 397.232 290.648 387.251C290.648 377.269 282.114 369.178 271.587 369.178C261.06 369.178 252.526 377.269 252.526 387.251C252.526 397.232 261.06 405.323 271.587 405.323Z" fill="white"/>
<path fill-rule="evenodd" clip-rule="evenodd" d="M209.5 563.563C222.479 563.563 233 553.587 233 541.281C233 528.976 222.479 519 209.5 519C196.521 519 186 528.976 186 541.281C186 553.587 196.521 563.563 209.5 563.563ZM209.587 559.323C220.114 559.323 228.648 551.232 228.648 541.251C228.648 531.269 220.114 523.178 209.587 523.178C199.06 523.178 190.526 531.269 190.526 541.251C190.526 551.232 199.06 559.323 209.587 559.323Z" fill="white"/>
<path d="M186 541L136 537" stroke="white" stroke-width="8"/>
<path d="M221 558C221 559.016 235.667 589.757 243 605" stroke="white" stroke-width="8"/>
<path d="M239 644L175 832" stroke="white" stroke-width="8"/>
<path d="M48 212.5L66.5 239.5" stroke="white" stroke-width="8"/>
<path fill-rule="evenodd" clip-rule="evenodd" d="M249.5 643.563C262.479 643.563 273 633.587 273 621.281C273 608.976 262.479 599 249.5 599C236.521 599 226 608.976 226 621.281C226 633.587 236.521 643.563 249.5 643.563ZM249.587 639.323C260.114 639.323 268.648 631.232 268.648 621.251C268.648 611.269 260.114 603.178 249.587 603.178C239.06 603.178 230.526 611.269 230.526 621.251C230.526 631.232 239.06 639.323 249.587 639.323Z" fill="white"/>
<path fill-rule="evenodd" clip-rule="evenodd" d="M98 590.333C122.853 590.333 143 571.231 143 547.667C143 524.103 122.853 505 98 505C73.1472 505 53 524.103 53 547.667C53 571.231 73.1472 590.333 98 590.333ZM98.1666 582.215C118.325 582.215 134.667 566.721 134.667 547.607C134.667 528.494 118.325 513 98.1666 513C78.0082 513 61.6666 528.494 61.6666 547.607C61.6666 566.721 78.0082 582.215 98.1666 582.215Z" fill="white"/>
<path fill-rule="evenodd" clip-rule="evenodd" d="M40.5 215.563C53.4787 215.563 64 205.587 64 193.281C64 180.976 53.4787 171 40.5 171C27.5213 171 17 180.976 17 193.281C17 205.587 27.5213 215.563 40.5 215.563ZM40.5869 211.323C51.114 211.323 59.648 203.232 59.648 193.251C59.648 183.269 51.114 175.178 40.5869 175.178C30.0597 175.178 21.5258 183.269 21.5258 193.251C21.5258 203.232 30.0597 211.323 40.5869 211.323Z" fill="white"/>
<path fill-rule="evenodd" clip-rule="evenodd" d="M1070.5 330.563C1083.48 330.563 1094 320.587 1094 308.281C1094 295.976 1083.48 286 1070.5 286C1057.52 286 1047 295.976 1047 308.281C1047 320.587 1057.52 330.563 1070.5 330.563ZM1070.59 326.323C1081.11 326.323 1089.65 318.232 1089.65 308.251C1089.65 298.269 1081.11 290.178 1070.59 290.178C1060.06 290.178 1051.53 298.269 1051.53 308.251C1051.53 318.232 1060.06 326.323 1070.59 326.323Z" fill="white"/>
<path fill-rule="evenodd" clip-rule="evenodd" d="M1016.5 635.563C1029.48 635.563 1040 625.587 1040 613.281C1040 600.976 1029.48 591 1016.5 591C1003.52 591 993 600.976 993 613.281C993 625.587 1003.52 635.563 1016.5 635.563ZM1016.59 631.323C1027.11 631.323 1035.65 623.232 1035.65 613.251C1035.65 603.269 1027.11 595.178 1016.59 595.178C1006.06 595.178 997.526 603.269 997.526 613.251C997.526 623.232 1006.06 631.323 1016.59 631.323Z" fill="white"/>
<path d="M1138 264L1152 291" stroke="white" stroke-width="17"/>
<path d="M1047 497.5L1119 534.5" stroke="white" stroke-width="17"/>
<path d="M1013.5 510L1017 592.5" stroke="white" stroke-width="8"/>
<path d="M1138.5 575L1115 675" stroke="white" stroke-width="19"/>
<path d="M48 174.5L69.5 121.5" stroke="white" stroke-width="11"/>
<path fill-rule="evenodd" clip-rule="evenodd" d="M196.5 223.422C215.554 223.422 231 208.777 231 190.711C231 172.645 215.554 158 196.5 158C177.446 158 162 172.645 162 190.711C162 208.777 177.446 223.422 196.5 223.422ZM196.627 217.198C212.082 217.198 224.611 205.319 224.611 190.666C224.611 176.012 212.082 164.133 196.627 164.133C181.173 164.133 168.644 176.012 168.644 190.666C168.644 205.319 181.173 217.198 196.627 217.198Z" fill="white"/>
<path fill-rule="evenodd" clip-rule="evenodd" d="M1061.5 128.422C1080.55 128.422 1096 113.777 1096 95.7111C1096 77.6453 1080.55 63 1061.5 63C1042.45 63 1027 77.6453 1027 95.7111C1027 113.777 1042.45 128.422 1061.5 128.422ZM1061.63 122.198C1077.08 122.198 1089.61 110.319 1089.61 95.6657C1089.61 81.0123 1077.08 69.1334 1061.63 69.1334C1046.17 69.1334 1033.64 81.0123 1033.64 95.6657C1033.64 110.319 1046.17 122.198 1061.63 122.198Z" fill="white"/>
<path fill-rule="evenodd" clip-rule="evenodd" d="M1147.5 578.422C1166.55 578.422 1182 563.777 1182 545.711C1182 527.645 1166.55 513 1147.5 513C1128.45 513 1113 527.645 1113 545.711C1113 563.777 1128.45 578.422 1147.5 578.422ZM1147.63 572.198C1163.08 572.198 1175.61 560.319 1175.61 545.666C1175.61 531.012 1163.08 519.133 1147.63 519.133C1132.17 519.133 1119.64 531.012 1119.64 545.666C1119.64 560.319 1132.17 572.198 1147.63 572.198Z" fill="white"/>
<path d="M1054 67L1029 -6" stroke="white" stroke-width="18"/>
<path fill-rule="evenodd" clip-rule="evenodd" d="M151.5 366.422C170.554 366.422 186 351.777 186 333.711C186 315.645 170.554 301 151.5 301C132.446 301 117 315.645 117 333.711C117 351.777 132.446 366.422 151.5 366.422ZM151.627 360.198C167.082 360.198 179.611 348.319 179.611 333.666C179.611 319.012 167.082 307.133 151.627 307.133C136.173 307.133 123.644 319.012 123.644 333.666C123.644 348.319 136.173 360.198 151.627 360.198Z" fill="white"/>
<path fill-rule="evenodd" clip-rule="evenodd" d="M104.5 734.422C123.554 734.422 139 719.777 139 701.711C139 683.645 123.554 669 104.5 669C85.4462 669 70 683.645 70 701.711C70 719.777 85.4462 734.422 104.5 734.422ZM104.627 728.198C120.082 728.198 132.611 716.319 132.611 701.666C132.611 687.012 120.082 675.133 104.627 675.133C89.1727 675.133 76.6441 687.012 76.6441 701.666C76.6441 716.319 89.1727 728.198 104.627 728.198Z" fill="white"/>
<path fill-rule="evenodd" clip-rule="evenodd" d="M84.5 296.422C103.554 296.422 119 281.777 119 263.711C119 245.645 103.554 231 84.5 231C65.4462 231 50 245.645 50 263.711C50 281.777 65.4462 296.422 84.5 296.422ZM84.6274 290.198C100.082 290.198 112.611 278.319 112.611 263.666C112.611 249.012 100.082 237.133 84.6274 237.133C69.1727 237.133 56.6441 249.012 56.6441 263.666C56.6441 278.319 69.1727 290.198 84.6274 290.198Z" fill="white"/>
<path d="M158 -9L111 54" stroke="white" stroke-width="19"/>
<path d="M117.5 112L172 171" stroke="white" stroke-width="19"/>
<path d="M171.5 208L111.5 247" stroke="white" stroke-width="19"/>
<path d="M101 286L131 316" stroke="white" stroke-width="19"/>
<path d="M212 215.696L265 369" stroke="white" stroke-width="11"/>
<path d="M98.5 586.5L103.5 671.5" stroke="white" stroke-width="18"/>
<path d="M113 730.5L153.5 824" stroke="white" stroke-width="18"/>
<path d="M254 379L175 349" stroke="white" stroke-width="8"/>
<path d="M231 633L131 685" stroke="white" stroke-width="8"/>
<path d="M1030.5 628.5L1076.5 682" stroke="white" stroke-width="11"/>
<path d="M1061 291L1057 123" stroke="white" stroke-width="11"/>
<path d="M1128 195C1129.06 188.703 1150.44 50.3764 1161 -18" stroke="white" stroke-width="24"/>
<path d="M1098.5 750.5L1093.5 831" stroke="white" stroke-width="24"/>
<path d="M196 163L197 -31" stroke="white" stroke-width="20"/>
<path fill-rule="evenodd" clip-rule="evenodd" d="M1166.5 351.422C1185.55 351.422 1201 336.777 1201 318.711C1201 300.645 1185.55 286 1166.5 286C1147.45 286 1132 300.645 1132 318.711C1132 336.777 1147.45 351.422 1166.5 351.422ZM1166.63 345.198C1182.08 345.198 1194.61 333.319 1194.61 318.666C1194.61 304.012 1182.08 292.133 1166.63 292.133C1151.17 292.133 1138.64 304.012 1138.64 318.666C1138.64 333.319 1151.17 345.198 1166.63 345.198Z" fill="white"/>
</g>
<defs>
<clipPath id="clip0_0_1">
<rect width="1201" height="817" fill="white"/>
</clipPath>
</defs>
</svg>
