<svg width="643" height="850" viewBox="0 0 643 850" fill="none" xmlns="http://www.w3.org/2000/svg">
<rect y="157" width="643" height="693" fill="black"/>
<path d="M80.1364 542L61.0455 472.182H69.6364L84.2273 529.045H84.9091L99.7727 472.182H109.318L124.182 529.045H124.864L139.455 472.182H148.045L128.955 542H120.227L104.818 486.364H104.273L88.8636 542H80.1364ZM174.568 543.091C169.523 543.091 165.17 541.977 161.511 539.75C157.875 537.5 155.068 534.364 153.091 530.341C151.136 526.295 150.159 521.591 150.159 516.227C150.159 510.864 151.136 506.136 153.091 502.045C155.068 497.932 157.818 494.727 161.341 492.432C164.886 490.114 169.023 488.955 173.75 488.955C176.477 488.955 179.17 489.409 181.83 490.318C184.489 491.227 186.909 492.705 189.091 494.75C191.273 496.773 193.011 499.455 194.307 502.795C195.602 506.136 196.25 510.25 196.25 515.136V518.545H155.886V511.591H188.068C188.068 508.636 187.477 506 186.295 503.682C185.136 501.364 183.477 499.534 181.318 498.193C179.182 496.852 176.659 496.182 173.75 496.182C170.545 496.182 167.773 496.977 165.432 498.568C163.114 500.136 161.33 502.182 160.08 504.705C158.83 507.227 158.205 509.932 158.205 512.818V517.455C158.205 521.409 158.886 524.761 160.25 527.511C161.636 530.239 163.557 532.318 166.011 533.75C168.466 535.159 171.318 535.864 174.568 535.864C176.682 535.864 178.591 535.568 180.295 534.977C182.023 534.364 183.511 533.455 184.761 532.25C186.011 531.023 186.977 529.5 187.659 527.682L195.432 529.864C194.614 532.5 193.239 534.818 191.307 536.818C189.375 538.795 186.989 540.341 184.148 541.455C181.307 542.545 178.114 543.091 174.568 543.091ZM272.58 501.364L265.352 503.409C264.898 502.205 264.227 501.034 263.341 499.898C262.477 498.739 261.295 497.784 259.795 497.034C258.295 496.284 256.375 495.909 254.034 495.909C250.83 495.909 248.159 496.648 246.023 498.125C243.909 499.58 242.852 501.432 242.852 503.682C242.852 505.682 243.58 507.261 245.034 508.42C246.489 509.58 248.761 510.545 251.852 511.318L259.625 513.227C264.307 514.364 267.795 516.102 270.091 518.443C272.386 520.761 273.534 523.75 273.534 527.409C273.534 530.409 272.67 533.091 270.943 535.455C269.239 537.818 266.852 539.682 263.784 541.045C260.716 542.409 257.148 543.091 253.08 543.091C247.739 543.091 243.318 541.932 239.818 539.614C236.318 537.295 234.102 533.909 233.17 529.455L240.807 527.545C241.534 530.364 242.909 532.477 244.932 533.886C246.977 535.295 249.648 536 252.943 536C256.693 536 259.67 535.205 261.875 533.614C264.102 532 265.216 530.068 265.216 527.818C265.216 526 264.58 524.477 263.307 523.25C262.034 522 260.08 521.068 257.443 520.455L248.716 518.409C243.92 517.273 240.398 515.511 238.148 513.125C235.92 510.716 234.807 507.705 234.807 504.091C234.807 501.136 235.636 498.523 237.295 496.25C238.977 493.977 241.261 492.193 244.148 490.898C247.057 489.602 250.352 488.955 254.034 488.955C259.216 488.955 263.284 490.091 266.239 492.364C269.216 494.636 271.33 497.636 272.58 501.364ZM307.599 543.091C302.554 543.091 298.202 541.977 294.543 539.75C290.906 537.5 288.099 534.364 286.122 530.341C284.168 526.295 283.19 521.591 283.19 516.227C283.19 510.864 284.168 506.136 286.122 502.045C288.099 497.932 290.849 494.727 294.372 492.432C297.918 490.114 302.054 488.955 306.781 488.955C309.509 488.955 312.202 489.409 314.861 490.318C317.52 491.227 319.94 492.705 322.122 494.75C324.304 496.773 326.043 499.455 327.338 502.795C328.634 506.136 329.281 510.25 329.281 515.136V518.545H288.918V511.591H321.099C321.099 508.636 320.509 506 319.327 503.682C318.168 501.364 316.509 499.534 314.349 498.193C312.213 496.852 309.69 496.182 306.781 496.182C303.577 496.182 300.804 496.977 298.463 498.568C296.145 500.136 294.361 502.182 293.111 504.705C291.861 507.227 291.236 509.932 291.236 512.818V517.455C291.236 521.409 291.918 524.761 293.281 527.511C294.668 530.239 296.588 532.318 299.043 533.75C301.497 535.159 304.349 535.864 307.599 535.864C309.713 535.864 311.622 535.568 313.327 534.977C315.054 534.364 316.543 533.455 317.793 532.25C319.043 531.023 320.009 529.5 320.69 527.682L328.463 529.864C327.645 532.5 326.27 534.818 324.338 536.818C322.406 538.795 320.02 540.341 317.179 541.455C314.338 542.545 311.145 543.091 307.599 543.091ZM363.474 543.091C358.429 543.091 354.077 541.977 350.418 539.75C346.781 537.5 343.974 534.364 341.997 530.341C340.043 526.295 339.065 521.591 339.065 516.227C339.065 510.864 340.043 506.136 341.997 502.045C343.974 497.932 346.724 494.727 350.247 492.432C353.793 490.114 357.929 488.955 362.656 488.955C365.384 488.955 368.077 489.409 370.736 490.318C373.395 491.227 375.815 492.705 377.997 494.75C380.179 496.773 381.918 499.455 383.213 502.795C384.509 506.136 385.156 510.25 385.156 515.136V518.545H344.793V511.591H376.974C376.974 508.636 376.384 506 375.202 503.682C374.043 501.364 372.384 499.534 370.224 498.193C368.088 496.852 365.565 496.182 362.656 496.182C359.452 496.182 356.679 496.977 354.338 498.568C352.02 500.136 350.236 502.182 348.986 504.705C347.736 507.227 347.111 509.932 347.111 512.818V517.455C347.111 521.409 347.793 524.761 349.156 527.511C350.543 530.239 352.463 532.318 354.918 533.75C357.372 535.159 360.224 535.864 363.474 535.864C365.588 535.864 367.497 535.568 369.202 534.977C370.929 534.364 372.418 533.455 373.668 532.25C374.918 531.023 375.884 529.5 376.565 527.682L384.338 529.864C383.52 532.5 382.145 534.818 380.213 536.818C378.281 538.795 375.895 540.341 373.054 541.455C370.213 542.545 367.02 543.091 363.474 543.091ZM429.577 561.636C428.213 561.636 426.997 561.523 425.929 561.295C424.861 561.091 424.122 560.886 423.713 560.682L425.759 553.591C427.713 554.091 429.44 554.273 430.94 554.136C432.44 554 433.77 553.33 434.929 552.125C436.111 550.943 437.19 549.023 438.168 546.364L439.668 542.273L420.304 489.636H429.031L443.486 531.364H444.031L458.486 489.636H467.213L444.986 549.636C443.986 552.341 442.747 554.58 441.27 556.352C439.793 558.148 438.077 559.477 436.122 560.341C434.19 561.205 432.009 561.636 429.577 561.636ZM497.23 543.091C492.503 543.091 488.355 541.966 484.787 539.716C481.241 537.466 478.469 534.318 476.469 530.273C474.491 526.227 473.503 521.5 473.503 516.091C473.503 510.636 474.491 505.875 476.469 501.807C478.469 497.739 481.241 494.58 484.787 492.33C488.355 490.08 492.503 488.955 497.23 488.955C501.957 488.955 506.094 490.08 509.639 492.33C513.207 494.58 515.98 497.739 517.957 501.807C519.957 505.875 520.957 510.636 520.957 516.091C520.957 521.5 519.957 526.227 517.957 530.273C515.98 534.318 513.207 537.466 509.639 539.716C506.094 541.966 501.957 543.091 497.23 543.091ZM497.23 535.864C500.821 535.864 503.776 534.943 506.094 533.102C508.412 531.261 510.128 528.841 511.241 525.841C512.355 522.841 512.912 519.591 512.912 516.091C512.912 512.591 512.355 509.33 511.241 506.307C510.128 503.284 508.412 500.841 506.094 498.977C503.776 497.114 500.821 496.182 497.23 496.182C493.639 496.182 490.685 497.114 488.366 498.977C486.048 500.841 484.332 503.284 483.219 506.307C482.105 509.33 481.548 512.591 481.548 516.091C481.548 519.591 482.105 522.841 483.219 525.841C484.332 528.841 486.048 531.261 488.366 533.102C490.685 534.943 493.639 535.864 497.23 535.864ZM566.239 520.591V489.636H574.284V542H566.239V533.136H565.693C564.466 535.795 562.557 538.057 559.966 539.92C557.375 541.761 554.102 542.682 550.148 542.682C546.875 542.682 543.966 541.966 541.42 540.534C538.875 539.08 536.875 536.898 535.42 533.989C533.966 531.057 533.239 527.364 533.239 522.909V489.636H541.284V522.364C541.284 526.182 542.352 529.227 544.489 531.5C546.648 533.773 549.398 534.909 552.739 534.909C554.739 534.909 556.773 534.398 558.841 533.375C560.932 532.352 562.682 530.784 564.091 528.67C565.523 526.557 566.239 523.864 566.239 520.591Z" fill="white"/>
<ellipse cx="321" cy="206.5" rx="217" ry="206.5" fill="#D9D9D9"/>
<path d="M479 206C479 288.843 408.485 356 321.5 356C234.515 356 164 288.843 164 206C164 123.157 234.515 56 321.5 56C408.485 56 479 123.157 479 206Z" fill="black"/>
</svg>
