<svg width="643" height="693" viewBox="0 0 643 693" fill="none" xmlns="http://www.w3.org/2000/svg">
<rect width="643" height="693" fill="black"/>
<path d="M82.1364 117L63.0455 47.1818H71.6364L86.2273 104.045H86.9091L101.773 47.1818H111.318L126.182 104.045H126.864L141.455 47.1818H150.045L130.955 117H122.227L106.818 61.3636H106.273L90.8636 117H82.1364ZM176.568 118.091C171.523 118.091 167.17 116.977 163.511 114.75C159.875 112.5 157.068 109.364 155.091 105.341C153.136 101.295 152.159 96.5909 152.159 91.2273C152.159 85.8636 153.136 81.1364 155.091 77.0455C157.068 72.9318 159.818 69.7273 163.341 67.4318C166.886 65.1136 171.023 63.9545 175.75 63.9545C178.477 63.9545 181.17 64.4091 183.83 65.3182C186.489 66.2273 188.909 67.7045 191.091 69.75C193.273 71.7727 195.011 74.4545 196.307 77.7955C197.602 81.1364 198.25 85.25 198.25 90.1364V93.5455H157.886V86.5909H190.068C190.068 83.6364 189.477 81 188.295 78.6818C187.136 76.3636 185.477 74.5341 183.318 73.1932C181.182 71.8523 178.659 71.1818 175.75 71.1818C172.545 71.1818 169.773 71.9773 167.432 73.5682C165.114 75.1364 163.33 77.1818 162.08 79.7045C160.83 82.2273 160.205 84.9318 160.205 87.8182V92.4545C160.205 96.4091 160.886 99.7614 162.25 102.511C163.636 105.239 165.557 107.318 168.011 108.75C170.466 110.159 173.318 110.864 176.568 110.864C178.682 110.864 180.591 110.568 182.295 109.977C184.023 109.364 185.511 108.455 186.761 107.25C188.011 106.023 188.977 104.5 189.659 102.682L197.432 104.864C196.614 107.5 195.239 109.818 193.307 111.818C191.375 113.795 188.989 115.341 186.148 116.455C183.307 117.545 180.114 118.091 176.568 118.091ZM274.58 76.3636L267.352 78.4091C266.898 77.2045 266.227 76.0341 265.341 74.8977C264.477 73.7386 263.295 72.7841 261.795 72.0341C260.295 71.2841 258.375 70.9091 256.034 70.9091C252.83 70.9091 250.159 71.6477 248.023 73.125C245.909 74.5795 244.852 76.4318 244.852 78.6818C244.852 80.6818 245.58 82.2614 247.034 83.4205C248.489 84.5795 250.761 85.5455 253.852 86.3182L261.625 88.2273C266.307 89.3636 269.795 91.1023 272.091 93.4432C274.386 95.7614 275.534 98.75 275.534 102.409C275.534 105.409 274.67 108.091 272.943 110.455C271.239 112.818 268.852 114.682 265.784 116.045C262.716 117.409 259.148 118.091 255.08 118.091C249.739 118.091 245.318 116.932 241.818 114.614C238.318 112.295 236.102 108.909 235.17 104.455L242.807 102.545C243.534 105.364 244.909 107.477 246.932 108.886C248.977 110.295 251.648 111 254.943 111C258.693 111 261.67 110.205 263.875 108.614C266.102 107 267.216 105.068 267.216 102.818C267.216 101 266.58 99.4773 265.307 98.25C264.034 97 262.08 96.0682 259.443 95.4545L250.716 93.4091C245.92 92.2727 242.398 90.5114 240.148 88.125C237.92 85.7159 236.807 82.7045 236.807 79.0909C236.807 76.1364 237.636 73.5227 239.295 71.25C240.977 68.9773 243.261 67.1932 246.148 65.8977C249.057 64.6023 252.352 63.9545 256.034 63.9545C261.216 63.9545 265.284 65.0909 268.239 67.3636C271.216 69.6364 273.33 72.6364 274.58 76.3636ZM309.599 118.091C304.554 118.091 300.202 116.977 296.543 114.75C292.906 112.5 290.099 109.364 288.122 105.341C286.168 101.295 285.19 96.5909 285.19 91.2273C285.19 85.8636 286.168 81.1364 288.122 77.0455C290.099 72.9318 292.849 69.7273 296.372 67.4318C299.918 65.1136 304.054 63.9545 308.781 63.9545C311.509 63.9545 314.202 64.4091 316.861 65.3182C319.52 66.2273 321.94 67.7045 324.122 69.75C326.304 71.7727 328.043 74.4545 329.338 77.7955C330.634 81.1364 331.281 85.25 331.281 90.1364V93.5455H290.918V86.5909H323.099C323.099 83.6364 322.509 81 321.327 78.6818C320.168 76.3636 318.509 74.5341 316.349 73.1932C314.213 71.8523 311.69 71.1818 308.781 71.1818C305.577 71.1818 302.804 71.9773 300.463 73.5682C298.145 75.1364 296.361 77.1818 295.111 79.7045C293.861 82.2273 293.236 84.9318 293.236 87.8182V92.4545C293.236 96.4091 293.918 99.7614 295.281 102.511C296.668 105.239 298.588 107.318 301.043 108.75C303.497 110.159 306.349 110.864 309.599 110.864C311.713 110.864 313.622 110.568 315.327 109.977C317.054 109.364 318.543 108.455 319.793 107.25C321.043 106.023 322.009 104.5 322.69 102.682L330.463 104.864C329.645 107.5 328.27 109.818 326.338 111.818C324.406 113.795 322.02 115.341 319.179 116.455C316.338 117.545 313.145 118.091 309.599 118.091ZM365.474 118.091C360.429 118.091 356.077 116.977 352.418 114.75C348.781 112.5 345.974 109.364 343.997 105.341C342.043 101.295 341.065 96.5909 341.065 91.2273C341.065 85.8636 342.043 81.1364 343.997 77.0455C345.974 72.9318 348.724 69.7273 352.247 67.4318C355.793 65.1136 359.929 63.9545 364.656 63.9545C367.384 63.9545 370.077 64.4091 372.736 65.3182C375.395 66.2273 377.815 67.7045 379.997 69.75C382.179 71.7727 383.918 74.4545 385.213 77.7955C386.509 81.1364 387.156 85.25 387.156 90.1364V93.5455H346.793V86.5909H378.974C378.974 83.6364 378.384 81 377.202 78.6818C376.043 76.3636 374.384 74.5341 372.224 73.1932C370.088 71.8523 367.565 71.1818 364.656 71.1818C361.452 71.1818 358.679 71.9773 356.338 73.5682C354.02 75.1364 352.236 77.1818 350.986 79.7045C349.736 82.2273 349.111 84.9318 349.111 87.8182V92.4545C349.111 96.4091 349.793 99.7614 351.156 102.511C352.543 105.239 354.463 107.318 356.918 108.75C359.372 110.159 362.224 110.864 365.474 110.864C367.588 110.864 369.497 110.568 371.202 109.977C372.929 109.364 374.418 108.455 375.668 107.25C376.918 106.023 377.884 104.5 378.565 102.682L386.338 104.864C385.52 107.5 384.145 109.818 382.213 111.818C380.281 113.795 377.895 115.341 375.054 116.455C372.213 117.545 369.02 118.091 365.474 118.091ZM431.577 136.636C430.213 136.636 428.997 136.523 427.929 136.295C426.861 136.091 426.122 135.886 425.713 135.682L427.759 128.591C429.713 129.091 431.44 129.273 432.94 129.136C434.44 129 435.77 128.33 436.929 127.125C438.111 125.943 439.19 124.023 440.168 121.364L441.668 117.273L422.304 64.6364H431.031L445.486 106.364H446.031L460.486 64.6364H469.213L446.986 124.636C445.986 127.341 444.747 129.58 443.27 131.352C441.793 133.148 440.077 134.477 438.122 135.341C436.19 136.205 434.009 136.636 431.577 136.636ZM499.23 118.091C494.503 118.091 490.355 116.966 486.787 114.716C483.241 112.466 480.469 109.318 478.469 105.273C476.491 101.227 475.503 96.5 475.503 91.0909C475.503 85.6364 476.491 80.875 478.469 76.8068C480.469 72.7386 483.241 69.5795 486.787 67.3295C490.355 65.0795 494.503 63.9545 499.23 63.9545C503.957 63.9545 508.094 65.0795 511.639 67.3295C515.207 69.5795 517.98 72.7386 519.957 76.8068C521.957 80.875 522.957 85.6364 522.957 91.0909C522.957 96.5 521.957 101.227 519.957 105.273C517.98 109.318 515.207 112.466 511.639 114.716C508.094 116.966 503.957 118.091 499.23 118.091ZM499.23 110.864C502.821 110.864 505.776 109.943 508.094 108.102C510.412 106.261 512.128 103.841 513.241 100.841C514.355 97.8409 514.912 94.5909 514.912 91.0909C514.912 87.5909 514.355 84.3295 513.241 81.3068C512.128 78.2841 510.412 75.8409 508.094 73.9773C505.776 72.1136 502.821 71.1818 499.23 71.1818C495.639 71.1818 492.685 72.1136 490.366 73.9773C488.048 75.8409 486.332 78.2841 485.219 81.3068C484.105 84.3295 483.548 87.5909 483.548 91.0909C483.548 94.5909 484.105 97.8409 485.219 100.841C486.332 103.841 488.048 106.261 490.366 108.102C492.685 109.943 495.639 110.864 499.23 110.864ZM568.239 95.5909V64.6364H576.284V117H568.239V108.136H567.693C566.466 110.795 564.557 113.057 561.966 114.92C559.375 116.761 556.102 117.682 552.148 117.682C548.875 117.682 545.966 116.966 543.42 115.534C540.875 114.08 538.875 111.898 537.42 108.989C535.966 106.057 535.239 102.364 535.239 97.9091V64.6364H543.284V97.3636C543.284 101.182 544.352 104.227 546.489 106.5C548.648 108.773 551.398 109.909 554.739 109.909C556.739 109.909 558.773 109.398 560.841 108.375C562.932 107.352 564.682 105.784 566.091 103.67C567.523 101.557 568.239 98.8636 568.239 95.5909Z" fill="white"/>
<ellipse cx="321" cy="441.5" rx="217" ry="206.5" fill="#D9D9D9"/>
<path d="M479 441C479 523.843 408.485 591 321.5 591C234.515 591 164 523.843 164 441C164 358.157 234.515 291 321.5 291C408.485 291 479 358.157 479 441Z" fill="black"/>
</svg>
