<svg width="523" height="682" viewBox="0 0 523 682" fill="none" xmlns="http://www.w3.org/2000/svg">
<rect width="523" height="682" fill="black"/>
<path d="M99.0909 306L86.3636 259.455H92.0909L101.818 297.364H102.273L112.182 259.455H118.545L128.455 297.364H128.909L138.636 259.455H144.364L131.636 306H125.818L115.545 268.909H115.182L104.909 306H99.0909ZM162.045 306.727C158.682 306.727 155.78 305.985 153.341 304.5C150.917 303 149.045 300.909 147.727 298.227C146.424 295.53 145.773 292.394 145.773 288.818C145.773 285.242 146.424 282.091 147.727 279.364C149.045 276.621 150.879 274.485 153.227 272.955C155.591 271.409 158.348 270.636 161.5 270.636C163.318 270.636 165.114 270.939 166.886 271.545C168.659 272.152 170.273 273.136 171.727 274.5C173.182 275.848 174.341 277.636 175.205 279.864C176.068 282.091 176.5 284.833 176.5 288.091V290.364H149.591V285.727H171.045C171.045 283.758 170.652 282 169.864 280.455C169.091 278.909 167.985 277.689 166.545 276.795C165.121 275.902 163.439 275.455 161.5 275.455C159.364 275.455 157.515 275.985 155.955 277.045C154.409 278.091 153.22 279.455 152.386 281.136C151.553 282.818 151.136 284.621 151.136 286.545V289.636C151.136 292.273 151.591 294.508 152.5 296.341C153.424 298.159 154.705 299.545 156.341 300.5C157.977 301.439 159.879 301.909 162.045 301.909C163.455 301.909 164.727 301.712 165.864 301.318C167.015 300.909 168.008 300.303 168.841 299.5C169.674 298.682 170.318 297.667 170.773 296.455L175.955 297.909C175.409 299.667 174.492 301.212 173.205 302.545C171.917 303.864 170.326 304.894 168.432 305.636C166.538 306.364 164.409 306.727 162.045 306.727ZM227.386 278.909L222.568 280.273C222.265 279.47 221.818 278.689 221.227 277.932C220.652 277.159 219.864 276.523 218.864 276.023C217.864 275.523 216.583 275.273 215.023 275.273C212.886 275.273 211.106 275.765 209.682 276.75C208.273 277.72 207.568 278.955 207.568 280.455C207.568 281.788 208.053 282.841 209.023 283.614C209.992 284.386 211.508 285.03 213.568 285.545L218.75 286.818C221.871 287.576 224.197 288.735 225.727 290.295C227.258 291.841 228.023 293.833 228.023 296.273C228.023 298.273 227.447 300.061 226.295 301.636C225.159 303.212 223.568 304.455 221.523 305.364C219.477 306.273 217.098 306.727 214.386 306.727C210.826 306.727 207.879 305.955 205.545 304.409C203.212 302.864 201.735 300.606 201.114 297.636L206.205 296.364C206.689 298.242 207.606 299.652 208.955 300.591C210.318 301.53 212.098 302 214.295 302C216.795 302 218.78 301.47 220.25 300.409C221.735 299.333 222.477 298.045 222.477 296.545C222.477 295.333 222.053 294.318 221.205 293.5C220.356 292.667 219.053 292.045 217.295 291.636L211.477 290.273C208.28 289.515 205.932 288.341 204.432 286.75C202.947 285.144 202.205 283.136 202.205 280.727C202.205 278.758 202.758 277.015 203.864 275.5C204.985 273.985 206.508 272.795 208.432 271.932C210.371 271.068 212.568 270.636 215.023 270.636C218.477 270.636 221.189 271.394 223.159 272.909C225.144 274.424 226.553 276.424 227.386 278.909ZM250.733 306.727C247.369 306.727 244.468 305.985 242.028 304.5C239.604 303 237.733 300.909 236.415 298.227C235.112 295.53 234.46 292.394 234.46 288.818C234.46 285.242 235.112 282.091 236.415 279.364C237.733 276.621 239.566 274.485 241.915 272.955C244.278 271.409 247.036 270.636 250.188 270.636C252.006 270.636 253.801 270.939 255.574 271.545C257.347 272.152 258.96 273.136 260.415 274.5C261.869 275.848 263.028 277.636 263.892 279.864C264.756 282.091 265.188 284.833 265.188 288.091V290.364H238.278V285.727H259.733C259.733 283.758 259.339 282 258.551 280.455C257.778 278.909 256.672 277.689 255.233 276.795C253.809 275.902 252.127 275.455 250.188 275.455C248.051 275.455 246.203 275.985 244.642 277.045C243.097 278.091 241.907 279.455 241.074 281.136C240.241 282.818 239.824 284.621 239.824 286.545V289.636C239.824 292.273 240.278 294.508 241.188 296.341C242.112 298.159 243.392 299.545 245.028 300.5C246.665 301.439 248.566 301.909 250.733 301.909C252.142 301.909 253.415 301.712 254.551 301.318C255.703 300.909 256.695 300.303 257.528 299.5C258.362 298.682 259.006 297.667 259.46 296.455L264.642 297.909C264.097 299.667 263.18 301.212 261.892 302.545C260.604 303.864 259.013 304.894 257.119 305.636C255.225 306.364 253.097 306.727 250.733 306.727ZM287.983 306.727C284.619 306.727 281.718 305.985 279.278 304.5C276.854 303 274.983 300.909 273.665 298.227C272.362 295.53 271.71 292.394 271.71 288.818C271.71 285.242 272.362 282.091 273.665 279.364C274.983 276.621 276.816 274.485 279.165 272.955C281.528 271.409 284.286 270.636 287.438 270.636C289.256 270.636 291.051 270.939 292.824 271.545C294.597 272.152 296.21 273.136 297.665 274.5C299.119 275.848 300.278 277.636 301.142 279.864C302.006 282.091 302.438 284.833 302.438 288.091V290.364H275.528V285.727H296.983C296.983 283.758 296.589 282 295.801 280.455C295.028 278.909 293.922 277.689 292.483 276.795C291.059 275.902 289.377 275.455 287.438 275.455C285.301 275.455 283.453 275.985 281.892 277.045C280.347 278.091 279.157 279.455 278.324 281.136C277.491 282.818 277.074 284.621 277.074 286.545V289.636C277.074 292.273 277.528 294.508 278.438 296.341C279.362 298.159 280.642 299.545 282.278 300.5C283.915 301.439 285.816 301.909 287.983 301.909C289.392 301.909 290.665 301.712 291.801 301.318C292.953 300.909 293.945 300.303 294.778 299.5C295.612 298.682 296.256 297.667 296.71 296.455L301.892 297.909C301.347 299.667 300.43 301.212 299.142 302.545C297.854 303.864 296.263 304.894 294.369 305.636C292.475 306.364 290.347 306.727 287.983 306.727ZM332.051 319.091C331.142 319.091 330.331 319.015 329.619 318.864C328.907 318.727 328.415 318.591 328.142 318.455L329.506 313.727C330.809 314.061 331.96 314.182 332.96 314.091C333.96 314 334.847 313.553 335.619 312.75C336.407 311.962 337.127 310.682 337.778 308.909L338.778 306.182L325.869 271.091H331.688L341.324 298.909H341.688L351.324 271.091H357.142L342.324 311.091C341.657 312.894 340.831 314.386 339.847 315.568C338.862 316.765 337.718 317.652 336.415 318.227C335.127 318.803 333.672 319.091 332.051 319.091ZM377.153 306.727C374.002 306.727 371.237 305.977 368.858 304.477C366.494 302.977 364.646 300.879 363.312 298.182C361.994 295.485 361.335 292.333 361.335 288.727C361.335 285.091 361.994 281.917 363.312 279.205C364.646 276.492 366.494 274.386 368.858 272.886C371.237 271.386 374.002 270.636 377.153 270.636C380.305 270.636 383.063 271.386 385.426 272.886C387.805 274.386 389.653 276.492 390.972 279.205C392.305 281.917 392.972 285.091 392.972 288.727C392.972 292.333 392.305 295.485 390.972 298.182C389.653 300.879 387.805 302.977 385.426 304.477C383.063 305.977 380.305 306.727 377.153 306.727ZM377.153 301.909C379.547 301.909 381.517 301.295 383.062 300.068C384.608 298.841 385.752 297.227 386.494 295.227C387.237 293.227 387.608 291.061 387.608 288.727C387.608 286.394 387.237 284.22 386.494 282.205C385.752 280.189 384.608 278.561 383.062 277.318C381.517 276.076 379.547 275.455 377.153 275.455C374.759 275.455 372.79 276.076 371.244 277.318C369.699 278.561 368.555 280.189 367.812 282.205C367.07 284.22 366.699 286.394 366.699 288.727C366.699 291.061 367.07 293.227 367.812 295.227C368.555 297.227 369.699 298.841 371.244 300.068C372.79 301.295 374.759 301.909 377.153 301.909ZM423.159 291.727V271.091H428.523V306H423.159V300.091H422.795C421.977 301.864 420.705 303.371 418.977 304.614C417.25 305.841 415.068 306.455 412.432 306.455C410.25 306.455 408.311 305.977 406.614 305.023C404.917 304.053 403.583 302.598 402.614 300.659C401.644 298.705 401.159 296.242 401.159 293.273V271.091H406.523V292.909C406.523 295.455 407.235 297.485 408.659 299C410.098 300.515 411.932 301.273 414.159 301.273C415.492 301.273 416.848 300.932 418.227 300.25C419.621 299.568 420.788 298.523 421.727 297.114C422.682 295.705 423.159 293.909 423.159 291.727Z" fill="white"/>
</svg>
