<svg width="523" height="693" viewBox="0 0 523 693" fill="none" xmlns="http://www.w3.org/2000/svg">
<rect width="523" height="693" fill="black"/>
<path d="M21.1364 311L2.04545 241.182H10.6364L25.2273 298.045H25.9091L40.7727 241.182H50.3182L65.1818 298.045H65.8636L80.4545 241.182H89.0455L69.9545 311H61.2273L45.8182 255.364H45.2727L29.8636 311H21.1364ZM115.568 312.091C110.523 312.091 106.17 310.977 102.511 308.75C98.875 306.5 96.0682 303.364 94.0909 299.341C92.1364 295.295 91.1591 290.591 91.1591 285.227C91.1591 279.864 92.1364 275.136 94.0909 271.045C96.0682 266.932 98.8182 263.727 102.341 261.432C105.886 259.114 110.023 257.955 114.75 257.955C117.477 257.955 120.17 258.409 122.83 259.318C125.489 260.227 127.909 261.705 130.091 263.75C132.273 265.773 134.011 268.455 135.307 271.795C136.602 275.136 137.25 279.25 137.25 284.136V287.545H96.8864V280.591H129.068C129.068 277.636 128.477 275 127.295 272.682C126.136 270.364 124.477 268.534 122.318 267.193C120.182 265.852 117.659 265.182 114.75 265.182C111.545 265.182 108.773 265.977 106.432 267.568C104.114 269.136 102.33 271.182 101.08 273.705C99.8295 276.227 99.2045 278.932 99.2045 281.818V286.455C99.2045 290.409 99.8864 293.761 101.25 296.511C102.636 299.239 104.557 301.318 107.011 302.75C109.466 304.159 112.318 304.864 115.568 304.864C117.682 304.864 119.591 304.568 121.295 303.977C123.023 303.364 124.511 302.455 125.761 301.25C127.011 300.023 127.977 298.5 128.659 296.682L136.432 298.864C135.614 301.5 134.239 303.818 132.307 305.818C130.375 307.795 127.989 309.341 125.148 310.455C122.307 311.545 119.114 312.091 115.568 312.091ZM213.58 270.364L206.352 272.409C205.898 271.205 205.227 270.034 204.341 268.898C203.477 267.739 202.295 266.784 200.795 266.034C199.295 265.284 197.375 264.909 195.034 264.909C191.83 264.909 189.159 265.648 187.023 267.125C184.909 268.58 183.852 270.432 183.852 272.682C183.852 274.682 184.58 276.261 186.034 277.42C187.489 278.58 189.761 279.545 192.852 280.318L200.625 282.227C205.307 283.364 208.795 285.102 211.091 287.443C213.386 289.761 214.534 292.75 214.534 296.409C214.534 299.409 213.67 302.091 211.943 304.455C210.239 306.818 207.852 308.682 204.784 310.045C201.716 311.409 198.148 312.091 194.08 312.091C188.739 312.091 184.318 310.932 180.818 308.614C177.318 306.295 175.102 302.909 174.17 298.455L181.807 296.545C182.534 299.364 183.909 301.477 185.932 302.886C187.977 304.295 190.648 305 193.943 305C197.693 305 200.67 304.205 202.875 302.614C205.102 301 206.216 299.068 206.216 296.818C206.216 295 205.58 293.477 204.307 292.25C203.034 291 201.08 290.068 198.443 289.455L189.716 287.409C184.92 286.273 181.398 284.511 179.148 282.125C176.92 279.716 175.807 276.705 175.807 273.091C175.807 270.136 176.636 267.523 178.295 265.25C179.977 262.977 182.261 261.193 185.148 259.898C188.057 258.602 191.352 257.955 195.034 257.955C200.216 257.955 204.284 259.091 207.239 261.364C210.216 263.636 212.33 266.636 213.58 270.364ZM248.599 312.091C243.554 312.091 239.202 310.977 235.543 308.75C231.906 306.5 229.099 303.364 227.122 299.341C225.168 295.295 224.19 290.591 224.19 285.227C224.19 279.864 225.168 275.136 227.122 271.045C229.099 266.932 231.849 263.727 235.372 261.432C238.918 259.114 243.054 257.955 247.781 257.955C250.509 257.955 253.202 258.409 255.861 259.318C258.52 260.227 260.94 261.705 263.122 263.75C265.304 265.773 267.043 268.455 268.338 271.795C269.634 275.136 270.281 279.25 270.281 284.136V287.545H229.918V280.591H262.099C262.099 277.636 261.509 275 260.327 272.682C259.168 270.364 257.509 268.534 255.349 267.193C253.213 265.852 250.69 265.182 247.781 265.182C244.577 265.182 241.804 265.977 239.463 267.568C237.145 269.136 235.361 271.182 234.111 273.705C232.861 276.227 232.236 278.932 232.236 281.818V286.455C232.236 290.409 232.918 293.761 234.281 296.511C235.668 299.239 237.588 301.318 240.043 302.75C242.497 304.159 245.349 304.864 248.599 304.864C250.713 304.864 252.622 304.568 254.327 303.977C256.054 303.364 257.543 302.455 258.793 301.25C260.043 300.023 261.009 298.5 261.69 296.682L269.463 298.864C268.645 301.5 267.27 303.818 265.338 305.818C263.406 307.795 261.02 309.341 258.179 310.455C255.338 311.545 252.145 312.091 248.599 312.091ZM304.474 312.091C299.429 312.091 295.077 310.977 291.418 308.75C287.781 306.5 284.974 303.364 282.997 299.341C281.043 295.295 280.065 290.591 280.065 285.227C280.065 279.864 281.043 275.136 282.997 271.045C284.974 266.932 287.724 263.727 291.247 261.432C294.793 259.114 298.929 257.955 303.656 257.955C306.384 257.955 309.077 258.409 311.736 259.318C314.395 260.227 316.815 261.705 318.997 263.75C321.179 265.773 322.918 268.455 324.213 271.795C325.509 275.136 326.156 279.25 326.156 284.136V287.545H285.793V280.591H317.974C317.974 277.636 317.384 275 316.202 272.682C315.043 270.364 313.384 268.534 311.224 267.193C309.088 265.852 306.565 265.182 303.656 265.182C300.452 265.182 297.679 265.977 295.338 267.568C293.02 269.136 291.236 271.182 289.986 273.705C288.736 276.227 288.111 278.932 288.111 281.818V286.455C288.111 290.409 288.793 293.761 290.156 296.511C291.543 299.239 293.463 301.318 295.918 302.75C298.372 304.159 301.224 304.864 304.474 304.864C306.588 304.864 308.497 304.568 310.202 303.977C311.929 303.364 313.418 302.455 314.668 301.25C315.918 300.023 316.884 298.5 317.565 296.682L325.338 298.864C324.52 301.5 323.145 303.818 321.213 305.818C319.281 307.795 316.895 309.341 314.054 310.455C311.213 311.545 308.02 312.091 304.474 312.091ZM370.577 330.636C369.213 330.636 367.997 330.523 366.929 330.295C365.861 330.091 365.122 329.886 364.713 329.682L366.759 322.591C368.713 323.091 370.44 323.273 371.94 323.136C373.44 323 374.77 322.33 375.929 321.125C377.111 319.943 378.19 318.023 379.168 315.364L380.668 311.273L361.304 258.636H370.031L384.486 300.364H385.031L399.486 258.636H408.213L385.986 318.636C384.986 321.341 383.747 323.58 382.27 325.352C380.793 327.148 379.077 328.477 377.122 329.341C375.19 330.205 373.009 330.636 370.577 330.636ZM438.23 312.091C433.503 312.091 429.355 310.966 425.787 308.716C422.241 306.466 419.469 303.318 417.469 299.273C415.491 295.227 414.503 290.5 414.503 285.091C414.503 279.636 415.491 274.875 417.469 270.807C419.469 266.739 422.241 263.58 425.787 261.33C429.355 259.08 433.503 257.955 438.23 257.955C442.957 257.955 447.094 259.08 450.639 261.33C454.207 263.58 456.98 266.739 458.957 270.807C460.957 274.875 461.957 279.636 461.957 285.091C461.957 290.5 460.957 295.227 458.957 299.273C456.98 303.318 454.207 306.466 450.639 308.716C447.094 310.966 442.957 312.091 438.23 312.091ZM438.23 304.864C441.821 304.864 444.776 303.943 447.094 302.102C449.412 300.261 451.128 297.841 452.241 294.841C453.355 291.841 453.912 288.591 453.912 285.091C453.912 281.591 453.355 278.33 452.241 275.307C451.128 272.284 449.412 269.841 447.094 267.977C444.776 266.114 441.821 265.182 438.23 265.182C434.639 265.182 431.685 266.114 429.366 267.977C427.048 269.841 425.332 272.284 424.219 275.307C423.105 278.33 422.548 281.591 422.548 285.091C422.548 288.591 423.105 291.841 424.219 294.841C425.332 297.841 427.048 300.261 429.366 302.102C431.685 303.943 434.639 304.864 438.23 304.864ZM507.239 289.591V258.636H515.284V311H507.239V302.136H506.693C505.466 304.795 503.557 307.057 500.966 308.92C498.375 310.761 495.102 311.682 491.148 311.682C487.875 311.682 484.966 310.966 482.42 309.534C479.875 308.08 477.875 305.898 476.42 302.989C474.966 300.057 474.239 296.364 474.239 291.909V258.636H482.284V291.364C482.284 295.182 483.352 298.227 485.489 300.5C487.648 302.773 490.398 303.909 493.739 303.909C495.739 303.909 497.773 303.398 499.841 302.375C501.932 301.352 503.682 299.784 505.091 297.67C506.523 295.557 507.239 292.864 507.239 289.591Z" fill="white"/>
</svg>
