<svg width="643" height="693" viewBox="0 0 643 693" fill="none" xmlns="http://www.w3.org/2000/svg">
<rect width="643" height="693" fill="black"/>
<path d="M80.1364 311L61.0455 241.182H69.6364L84.2273 298.045H84.9091L99.7727 241.182H109.318L124.182 298.045H124.864L139.455 241.182H148.045L128.955 311H120.227L104.818 255.364H104.273L88.8636 311H80.1364ZM174.568 312.091C169.523 312.091 165.17 310.977 161.511 308.75C157.875 306.5 155.068 303.364 153.091 299.341C151.136 295.295 150.159 290.591 150.159 285.227C150.159 279.864 151.136 275.136 153.091 271.045C155.068 266.932 157.818 263.727 161.341 261.432C164.886 259.114 169.023 257.955 173.75 257.955C176.477 257.955 179.17 258.409 181.83 259.318C184.489 260.227 186.909 261.705 189.091 263.75C191.273 265.773 193.011 268.455 194.307 271.795C195.602 275.136 196.25 279.25 196.25 284.136V287.545H155.886V280.591H188.068C188.068 277.636 187.477 275 186.295 272.682C185.136 270.364 183.477 268.534 181.318 267.193C179.182 265.852 176.659 265.182 173.75 265.182C170.545 265.182 167.773 265.977 165.432 267.568C163.114 269.136 161.33 271.182 160.08 273.705C158.83 276.227 158.205 278.932 158.205 281.818V286.455C158.205 290.409 158.886 293.761 160.25 296.511C161.636 299.239 163.557 301.318 166.011 302.75C168.466 304.159 171.318 304.864 174.568 304.864C176.682 304.864 178.591 304.568 180.295 303.977C182.023 303.364 183.511 302.455 184.761 301.25C186.011 300.023 186.977 298.5 187.659 296.682L195.432 298.864C194.614 301.5 193.239 303.818 191.307 305.818C189.375 307.795 186.989 309.341 184.148 310.455C181.307 311.545 178.114 312.091 174.568 312.091ZM272.58 270.364L265.352 272.409C264.898 271.205 264.227 270.034 263.341 268.898C262.477 267.739 261.295 266.784 259.795 266.034C258.295 265.284 256.375 264.909 254.034 264.909C250.83 264.909 248.159 265.648 246.023 267.125C243.909 268.58 242.852 270.432 242.852 272.682C242.852 274.682 243.58 276.261 245.034 277.42C246.489 278.58 248.761 279.545 251.852 280.318L259.625 282.227C264.307 283.364 267.795 285.102 270.091 287.443C272.386 289.761 273.534 292.75 273.534 296.409C273.534 299.409 272.67 302.091 270.943 304.455C269.239 306.818 266.852 308.682 263.784 310.045C260.716 311.409 257.148 312.091 253.08 312.091C247.739 312.091 243.318 310.932 239.818 308.614C236.318 306.295 234.102 302.909 233.17 298.455L240.807 296.545C241.534 299.364 242.909 301.477 244.932 302.886C246.977 304.295 249.648 305 252.943 305C256.693 305 259.67 304.205 261.875 302.614C264.102 301 265.216 299.068 265.216 296.818C265.216 295 264.58 293.477 263.307 292.25C262.034 291 260.08 290.068 257.443 289.455L248.716 287.409C243.92 286.273 240.398 284.511 238.148 282.125C235.92 279.716 234.807 276.705 234.807 273.091C234.807 270.136 235.636 267.523 237.295 265.25C238.977 262.977 241.261 261.193 244.148 259.898C247.057 258.602 250.352 257.955 254.034 257.955C259.216 257.955 263.284 259.091 266.239 261.364C269.216 263.636 271.33 266.636 272.58 270.364ZM307.599 312.091C302.554 312.091 298.202 310.977 294.543 308.75C290.906 306.5 288.099 303.364 286.122 299.341C284.168 295.295 283.19 290.591 283.19 285.227C283.19 279.864 284.168 275.136 286.122 271.045C288.099 266.932 290.849 263.727 294.372 261.432C297.918 259.114 302.054 257.955 306.781 257.955C309.509 257.955 312.202 258.409 314.861 259.318C317.52 260.227 319.94 261.705 322.122 263.75C324.304 265.773 326.043 268.455 327.338 271.795C328.634 275.136 329.281 279.25 329.281 284.136V287.545H288.918V280.591H321.099C321.099 277.636 320.509 275 319.327 272.682C318.168 270.364 316.509 268.534 314.349 267.193C312.213 265.852 309.69 265.182 306.781 265.182C303.577 265.182 300.804 265.977 298.463 267.568C296.145 269.136 294.361 271.182 293.111 273.705C291.861 276.227 291.236 278.932 291.236 281.818V286.455C291.236 290.409 291.918 293.761 293.281 296.511C294.668 299.239 296.588 301.318 299.043 302.75C301.497 304.159 304.349 304.864 307.599 304.864C309.713 304.864 311.622 304.568 313.327 303.977C315.054 303.364 316.543 302.455 317.793 301.25C319.043 300.023 320.009 298.5 320.69 296.682L328.463 298.864C327.645 301.5 326.27 303.818 324.338 305.818C322.406 307.795 320.02 309.341 317.179 310.455C314.338 311.545 311.145 312.091 307.599 312.091ZM363.474 312.091C358.429 312.091 354.077 310.977 350.418 308.75C346.781 306.5 343.974 303.364 341.997 299.341C340.043 295.295 339.065 290.591 339.065 285.227C339.065 279.864 340.043 275.136 341.997 271.045C343.974 266.932 346.724 263.727 350.247 261.432C353.793 259.114 357.929 257.955 362.656 257.955C365.384 257.955 368.077 258.409 370.736 259.318C373.395 260.227 375.815 261.705 377.997 263.75C380.179 265.773 381.918 268.455 383.213 271.795C384.509 275.136 385.156 279.25 385.156 284.136V287.545H344.793V280.591H376.974C376.974 277.636 376.384 275 375.202 272.682C374.043 270.364 372.384 268.534 370.224 267.193C368.088 265.852 365.565 265.182 362.656 265.182C359.452 265.182 356.679 265.977 354.338 267.568C352.02 269.136 350.236 271.182 348.986 273.705C347.736 276.227 347.111 278.932 347.111 281.818V286.455C347.111 290.409 347.793 293.761 349.156 296.511C350.543 299.239 352.463 301.318 354.918 302.75C357.372 304.159 360.224 304.864 363.474 304.864C365.588 304.864 367.497 304.568 369.202 303.977C370.929 303.364 372.418 302.455 373.668 301.25C374.918 300.023 375.884 298.5 376.565 296.682L384.338 298.864C383.52 301.5 382.145 303.818 380.213 305.818C378.281 307.795 375.895 309.341 373.054 310.455C370.213 311.545 367.02 312.091 363.474 312.091ZM429.577 330.636C428.213 330.636 426.997 330.523 425.929 330.295C424.861 330.091 424.122 329.886 423.713 329.682L425.759 322.591C427.713 323.091 429.44 323.273 430.94 323.136C432.44 323 433.77 322.33 434.929 321.125C436.111 319.943 437.19 318.023 438.168 315.364L439.668 311.273L420.304 258.636H429.031L443.486 300.364H444.031L458.486 258.636H467.213L444.986 318.636C443.986 321.341 442.747 323.58 441.27 325.352C439.793 327.148 438.077 328.477 436.122 329.341C434.19 330.205 432.009 330.636 429.577 330.636ZM497.23 312.091C492.503 312.091 488.355 310.966 484.787 308.716C481.241 306.466 478.469 303.318 476.469 299.273C474.491 295.227 473.503 290.5 473.503 285.091C473.503 279.636 474.491 274.875 476.469 270.807C478.469 266.739 481.241 263.58 484.787 261.33C488.355 259.08 492.503 257.955 497.23 257.955C501.957 257.955 506.094 259.08 509.639 261.33C513.207 263.58 515.98 266.739 517.957 270.807C519.957 274.875 520.957 279.636 520.957 285.091C520.957 290.5 519.957 295.227 517.957 299.273C515.98 303.318 513.207 306.466 509.639 308.716C506.094 310.966 501.957 312.091 497.23 312.091ZM497.23 304.864C500.821 304.864 503.776 303.943 506.094 302.102C508.412 300.261 510.128 297.841 511.241 294.841C512.355 291.841 512.912 288.591 512.912 285.091C512.912 281.591 512.355 278.33 511.241 275.307C510.128 272.284 508.412 269.841 506.094 267.977C503.776 266.114 500.821 265.182 497.23 265.182C493.639 265.182 490.685 266.114 488.366 267.977C486.048 269.841 484.332 272.284 483.219 275.307C482.105 278.33 481.548 281.591 481.548 285.091C481.548 288.591 482.105 291.841 483.219 294.841C484.332 297.841 486.048 300.261 488.366 302.102C490.685 303.943 493.639 304.864 497.23 304.864ZM566.239 289.591V258.636H574.284V311H566.239V302.136H565.693C564.466 304.795 562.557 307.057 559.966 308.92C557.375 310.761 554.102 311.682 550.148 311.682C546.875 311.682 543.966 310.966 541.42 309.534C538.875 308.08 536.875 305.898 535.42 302.989C533.966 300.057 533.239 296.364 533.239 291.909V258.636H541.284V291.364C541.284 295.182 542.352 298.227 544.489 300.5C546.648 302.773 549.398 303.909 552.739 303.909C554.739 303.909 556.773 303.398 558.841 302.375C560.932 301.352 562.682 299.784 564.091 297.67C565.523 295.557 566.239 292.864 566.239 289.591Z" fill="white"/>
</svg>
