<svg width="523" height="682" viewBox="0 0 523 682" fill="none" xmlns="http://www.w3.org/2000/svg">
<rect width="523" height="682" fill="black"/>
<path d="M99.0909 297L86.3636 250.455H92.0909L101.818 288.364H102.273L112.182 250.455H118.545L128.455 288.364H128.909L138.636 250.455H144.364L131.636 297H125.818L115.545 259.909H115.182L104.909 297H99.0909ZM162.045 297.727C158.682 297.727 155.78 296.985 153.341 295.5C150.917 294 149.045 291.909 147.727 289.227C146.424 286.53 145.773 283.394 145.773 279.818C145.773 276.242 146.424 273.091 147.727 270.364C149.045 267.621 150.879 265.485 153.227 263.955C155.591 262.409 158.348 261.636 161.5 261.636C163.318 261.636 165.114 261.939 166.886 262.545C168.659 263.152 170.273 264.136 171.727 265.5C173.182 266.848 174.341 268.636 175.205 270.864C176.068 273.091 176.5 275.833 176.5 279.091V281.364H149.591V276.727H171.045C171.045 274.758 170.652 273 169.864 271.455C169.091 269.909 167.985 268.689 166.545 267.795C165.121 266.902 163.439 266.455 161.5 266.455C159.364 266.455 157.515 266.985 155.955 268.045C154.409 269.091 153.22 270.455 152.386 272.136C151.553 273.818 151.136 275.621 151.136 277.545V280.636C151.136 283.273 151.591 285.508 152.5 287.341C153.424 289.159 154.705 290.545 156.341 291.5C157.977 292.439 159.879 292.909 162.045 292.909C163.455 292.909 164.727 292.712 165.864 292.318C167.015 291.909 168.008 291.303 168.841 290.5C169.674 289.682 170.318 288.667 170.773 287.455L175.955 288.909C175.409 290.667 174.492 292.212 173.205 293.545C171.917 294.864 170.326 295.894 168.432 296.636C166.538 297.364 164.409 297.727 162.045 297.727ZM227.386 269.909L222.568 271.273C222.265 270.47 221.818 269.689 221.227 268.932C220.652 268.159 219.864 267.523 218.864 267.023C217.864 266.523 216.583 266.273 215.023 266.273C212.886 266.273 211.106 266.765 209.682 267.75C208.273 268.72 207.568 269.955 207.568 271.455C207.568 272.788 208.053 273.841 209.023 274.614C209.992 275.386 211.508 276.03 213.568 276.545L218.75 277.818C221.871 278.576 224.197 279.735 225.727 281.295C227.258 282.841 228.023 284.833 228.023 287.273C228.023 289.273 227.447 291.061 226.295 292.636C225.159 294.212 223.568 295.455 221.523 296.364C219.477 297.273 217.098 297.727 214.386 297.727C210.826 297.727 207.879 296.955 205.545 295.409C203.212 293.864 201.735 291.606 201.114 288.636L206.205 287.364C206.689 289.242 207.606 290.652 208.955 291.591C210.318 292.53 212.098 293 214.295 293C216.795 293 218.78 292.47 220.25 291.409C221.735 290.333 222.477 289.045 222.477 287.545C222.477 286.333 222.053 285.318 221.205 284.5C220.356 283.667 219.053 283.045 217.295 282.636L211.477 281.273C208.28 280.515 205.932 279.341 204.432 277.75C202.947 276.144 202.205 274.136 202.205 271.727C202.205 269.758 202.758 268.015 203.864 266.5C204.985 264.985 206.508 263.795 208.432 262.932C210.371 262.068 212.568 261.636 215.023 261.636C218.477 261.636 221.189 262.394 223.159 263.909C225.144 265.424 226.553 267.424 227.386 269.909ZM250.733 297.727C247.369 297.727 244.468 296.985 242.028 295.5C239.604 294 237.733 291.909 236.415 289.227C235.112 286.53 234.46 283.394 234.46 279.818C234.46 276.242 235.112 273.091 236.415 270.364C237.733 267.621 239.566 265.485 241.915 263.955C244.278 262.409 247.036 261.636 250.188 261.636C252.006 261.636 253.801 261.939 255.574 262.545C257.347 263.152 258.96 264.136 260.415 265.5C261.869 266.848 263.028 268.636 263.892 270.864C264.756 273.091 265.188 275.833 265.188 279.091V281.364H238.278V276.727H259.733C259.733 274.758 259.339 273 258.551 271.455C257.778 269.909 256.672 268.689 255.233 267.795C253.809 266.902 252.127 266.455 250.188 266.455C248.051 266.455 246.203 266.985 244.642 268.045C243.097 269.091 241.907 270.455 241.074 272.136C240.241 273.818 239.824 275.621 239.824 277.545V280.636C239.824 283.273 240.278 285.508 241.188 287.341C242.112 289.159 243.392 290.545 245.028 291.5C246.665 292.439 248.566 292.909 250.733 292.909C252.142 292.909 253.415 292.712 254.551 292.318C255.703 291.909 256.695 291.303 257.528 290.5C258.362 289.682 259.006 288.667 259.46 287.455L264.642 288.909C264.097 290.667 263.18 292.212 261.892 293.545C260.604 294.864 259.013 295.894 257.119 296.636C255.225 297.364 253.097 297.727 250.733 297.727ZM287.983 297.727C284.619 297.727 281.718 296.985 279.278 295.5C276.854 294 274.983 291.909 273.665 289.227C272.362 286.53 271.71 283.394 271.71 279.818C271.71 276.242 272.362 273.091 273.665 270.364C274.983 267.621 276.816 265.485 279.165 263.955C281.528 262.409 284.286 261.636 287.438 261.636C289.256 261.636 291.051 261.939 292.824 262.545C294.597 263.152 296.21 264.136 297.665 265.5C299.119 266.848 300.278 268.636 301.142 270.864C302.006 273.091 302.438 275.833 302.438 279.091V281.364H275.528V276.727H296.983C296.983 274.758 296.589 273 295.801 271.455C295.028 269.909 293.922 268.689 292.483 267.795C291.059 266.902 289.377 266.455 287.438 266.455C285.301 266.455 283.453 266.985 281.892 268.045C280.347 269.091 279.157 270.455 278.324 272.136C277.491 273.818 277.074 275.621 277.074 277.545V280.636C277.074 283.273 277.528 285.508 278.438 287.341C279.362 289.159 280.642 290.545 282.278 291.5C283.915 292.439 285.816 292.909 287.983 292.909C289.392 292.909 290.665 292.712 291.801 292.318C292.953 291.909 293.945 291.303 294.778 290.5C295.612 289.682 296.256 288.667 296.71 287.455L301.892 288.909C301.347 290.667 300.43 292.212 299.142 293.545C297.854 294.864 296.263 295.894 294.369 296.636C292.475 297.364 290.347 297.727 287.983 297.727ZM332.051 310.091C331.142 310.091 330.331 310.015 329.619 309.864C328.907 309.727 328.415 309.591 328.142 309.455L329.506 304.727C330.809 305.061 331.96 305.182 332.96 305.091C333.96 305 334.847 304.553 335.619 303.75C336.407 302.962 337.127 301.682 337.778 299.909L338.778 297.182L325.869 262.091H331.688L341.324 289.909H341.688L351.324 262.091H357.142L342.324 302.091C341.657 303.894 340.831 305.386 339.847 306.568C338.862 307.765 337.718 308.652 336.415 309.227C335.127 309.803 333.672 310.091 332.051 310.091ZM377.153 297.727C374.002 297.727 371.237 296.977 368.858 295.477C366.494 293.977 364.646 291.879 363.312 289.182C361.994 286.485 361.335 283.333 361.335 279.727C361.335 276.091 361.994 272.917 363.312 270.205C364.646 267.492 366.494 265.386 368.858 263.886C371.237 262.386 374.002 261.636 377.153 261.636C380.305 261.636 383.063 262.386 385.426 263.886C387.805 265.386 389.653 267.492 390.972 270.205C392.305 272.917 392.972 276.091 392.972 279.727C392.972 283.333 392.305 286.485 390.972 289.182C389.653 291.879 387.805 293.977 385.426 295.477C383.063 296.977 380.305 297.727 377.153 297.727ZM377.153 292.909C379.547 292.909 381.517 292.295 383.062 291.068C384.608 289.841 385.752 288.227 386.494 286.227C387.237 284.227 387.608 282.061 387.608 279.727C387.608 277.394 387.237 275.22 386.494 273.205C385.752 271.189 384.608 269.561 383.062 268.318C381.517 267.076 379.547 266.455 377.153 266.455C374.759 266.455 372.79 267.076 371.244 268.318C369.699 269.561 368.555 271.189 367.812 273.205C367.07 275.22 366.699 277.394 366.699 279.727C366.699 282.061 367.07 284.227 367.812 286.227C368.555 288.227 369.699 289.841 371.244 291.068C372.79 292.295 374.759 292.909 377.153 292.909ZM423.159 282.727V262.091H428.523V297H423.159V291.091H422.795C421.977 292.864 420.705 294.371 418.977 295.614C417.25 296.841 415.068 297.455 412.432 297.455C410.25 297.455 408.311 296.977 406.614 296.023C404.917 295.053 403.583 293.598 402.614 291.659C401.644 289.705 401.159 287.242 401.159 284.273V262.091H406.523V283.909C406.523 286.455 407.235 288.485 408.659 290C410.098 291.515 411.932 292.273 414.159 292.273C415.492 292.273 416.848 291.932 418.227 291.25C419.621 290.568 420.788 289.523 421.727 288.114C422.682 286.705 423.159 284.909 423.159 282.727Z" fill="white"/>
</svg>
