<svg width="523" height="682" viewBox="0 0 523 682" fill="none" xmlns="http://www.w3.org/2000/svg">
<rect width="523" height="682" fill="black"/>
<path d="M97.0909 346L84.3636 299.455H90.0909L99.8182 337.364H100.273L110.182 299.455H116.545L126.455 337.364H126.909L136.636 299.455H142.364L129.636 346H123.818L113.545 308.909H113.182L102.909 346H97.0909ZM160.045 346.727C156.682 346.727 153.78 345.985 151.341 344.5C148.917 343 147.045 340.909 145.727 338.227C144.424 335.53 143.773 332.394 143.773 328.818C143.773 325.242 144.424 322.091 145.727 319.364C147.045 316.621 148.879 314.485 151.227 312.955C153.591 311.409 156.348 310.636 159.5 310.636C161.318 310.636 163.114 310.939 164.886 311.545C166.659 312.152 168.273 313.136 169.727 314.5C171.182 315.848 172.341 317.636 173.205 319.864C174.068 322.091 174.5 324.833 174.5 328.091V330.364H147.591V325.727H169.045C169.045 323.758 168.652 322 167.864 320.455C167.091 318.909 165.985 317.689 164.545 316.795C163.121 315.902 161.439 315.455 159.5 315.455C157.364 315.455 155.515 315.985 153.955 317.045C152.409 318.091 151.22 319.455 150.386 321.136C149.553 322.818 149.136 324.621 149.136 326.545V329.636C149.136 332.273 149.591 334.508 150.5 336.341C151.424 338.159 152.705 339.545 154.341 340.5C155.977 341.439 157.879 341.909 160.045 341.909C161.455 341.909 162.727 341.712 163.864 341.318C165.015 340.909 166.008 340.303 166.841 339.5C167.674 338.682 168.318 337.667 168.773 336.455L173.955 337.909C173.409 339.667 172.492 341.212 171.205 342.545C169.917 343.864 168.326 344.894 166.432 345.636C164.538 346.364 162.409 346.727 160.045 346.727ZM225.386 318.909L220.568 320.273C220.265 319.47 219.818 318.689 219.227 317.932C218.652 317.159 217.864 316.523 216.864 316.023C215.864 315.523 214.583 315.273 213.023 315.273C210.886 315.273 209.106 315.765 207.682 316.75C206.273 317.72 205.568 318.955 205.568 320.455C205.568 321.788 206.053 322.841 207.023 323.614C207.992 324.386 209.508 325.03 211.568 325.545L216.75 326.818C219.871 327.576 222.197 328.735 223.727 330.295C225.258 331.841 226.023 333.833 226.023 336.273C226.023 338.273 225.447 340.061 224.295 341.636C223.159 343.212 221.568 344.455 219.523 345.364C217.477 346.273 215.098 346.727 212.386 346.727C208.826 346.727 205.879 345.955 203.545 344.409C201.212 342.864 199.735 340.606 199.114 337.636L204.205 336.364C204.689 338.242 205.606 339.652 206.955 340.591C208.318 341.53 210.098 342 212.295 342C214.795 342 216.78 341.47 218.25 340.409C219.735 339.333 220.477 338.045 220.477 336.545C220.477 335.333 220.053 334.318 219.205 333.5C218.356 332.667 217.053 332.045 215.295 331.636L209.477 330.273C206.28 329.515 203.932 328.341 202.432 326.75C200.947 325.144 200.205 323.136 200.205 320.727C200.205 318.758 200.758 317.015 201.864 315.5C202.985 313.985 204.508 312.795 206.432 311.932C208.371 311.068 210.568 310.636 213.023 310.636C216.477 310.636 219.189 311.394 221.159 312.909C223.144 314.424 224.553 316.424 225.386 318.909ZM248.733 346.727C245.369 346.727 242.468 345.985 240.028 344.5C237.604 343 235.733 340.909 234.415 338.227C233.112 335.53 232.46 332.394 232.46 328.818C232.46 325.242 233.112 322.091 234.415 319.364C235.733 316.621 237.566 314.485 239.915 312.955C242.278 311.409 245.036 310.636 248.188 310.636C250.006 310.636 251.801 310.939 253.574 311.545C255.347 312.152 256.96 313.136 258.415 314.5C259.869 315.848 261.028 317.636 261.892 319.864C262.756 322.091 263.188 324.833 263.188 328.091V330.364H236.278V325.727H257.733C257.733 323.758 257.339 322 256.551 320.455C255.778 318.909 254.672 317.689 253.233 316.795C251.809 315.902 250.127 315.455 248.188 315.455C246.051 315.455 244.203 315.985 242.642 317.045C241.097 318.091 239.907 319.455 239.074 321.136C238.241 322.818 237.824 324.621 237.824 326.545V329.636C237.824 332.273 238.278 334.508 239.188 336.341C240.112 338.159 241.392 339.545 243.028 340.5C244.665 341.439 246.566 341.909 248.733 341.909C250.142 341.909 251.415 341.712 252.551 341.318C253.703 340.909 254.695 340.303 255.528 339.5C256.362 338.682 257.006 337.667 257.46 336.455L262.642 337.909C262.097 339.667 261.18 341.212 259.892 342.545C258.604 343.864 257.013 344.894 255.119 345.636C253.225 346.364 251.097 346.727 248.733 346.727ZM285.983 346.727C282.619 346.727 279.718 345.985 277.278 344.5C274.854 343 272.983 340.909 271.665 338.227C270.362 335.53 269.71 332.394 269.71 328.818C269.71 325.242 270.362 322.091 271.665 319.364C272.983 316.621 274.816 314.485 277.165 312.955C279.528 311.409 282.286 310.636 285.438 310.636C287.256 310.636 289.051 310.939 290.824 311.545C292.597 312.152 294.21 313.136 295.665 314.5C297.119 315.848 298.278 317.636 299.142 319.864C300.006 322.091 300.438 324.833 300.438 328.091V330.364H273.528V325.727H294.983C294.983 323.758 294.589 322 293.801 320.455C293.028 318.909 291.922 317.689 290.483 316.795C289.059 315.902 287.377 315.455 285.438 315.455C283.301 315.455 281.453 315.985 279.892 317.045C278.347 318.091 277.157 319.455 276.324 321.136C275.491 322.818 275.074 324.621 275.074 326.545V329.636C275.074 332.273 275.528 334.508 276.438 336.341C277.362 338.159 278.642 339.545 280.278 340.5C281.915 341.439 283.816 341.909 285.983 341.909C287.392 341.909 288.665 341.712 289.801 341.318C290.953 340.909 291.945 340.303 292.778 339.5C293.612 338.682 294.256 337.667 294.71 336.455L299.892 337.909C299.347 339.667 298.43 341.212 297.142 342.545C295.854 343.864 294.263 344.894 292.369 345.636C290.475 346.364 288.347 346.727 285.983 346.727ZM330.051 359.091C329.142 359.091 328.331 359.015 327.619 358.864C326.907 358.727 326.415 358.591 326.142 358.455L327.506 353.727C328.809 354.061 329.96 354.182 330.96 354.091C331.96 354 332.847 353.553 333.619 352.75C334.407 351.962 335.127 350.682 335.778 348.909L336.778 346.182L323.869 311.091H329.688L339.324 338.909H339.688L349.324 311.091H355.142L340.324 351.091C339.657 352.894 338.831 354.386 337.847 355.568C336.862 356.765 335.718 357.652 334.415 358.227C333.127 358.803 331.672 359.091 330.051 359.091ZM375.153 346.727C372.002 346.727 369.237 345.977 366.858 344.477C364.494 342.977 362.646 340.879 361.312 338.182C359.994 335.485 359.335 332.333 359.335 328.727C359.335 325.091 359.994 321.917 361.312 319.205C362.646 316.492 364.494 314.386 366.858 312.886C369.237 311.386 372.002 310.636 375.153 310.636C378.305 310.636 381.063 311.386 383.426 312.886C385.805 314.386 387.653 316.492 388.972 319.205C390.305 321.917 390.972 325.091 390.972 328.727C390.972 332.333 390.305 335.485 388.972 338.182C387.653 340.879 385.805 342.977 383.426 344.477C381.063 345.977 378.305 346.727 375.153 346.727ZM375.153 341.909C377.547 341.909 379.517 341.295 381.062 340.068C382.608 338.841 383.752 337.227 384.494 335.227C385.237 333.227 385.608 331.061 385.608 328.727C385.608 326.394 385.237 324.22 384.494 322.205C383.752 320.189 382.608 318.561 381.062 317.318C379.517 316.076 377.547 315.455 375.153 315.455C372.759 315.455 370.79 316.076 369.244 317.318C367.699 318.561 366.555 320.189 365.812 322.205C365.07 324.22 364.699 326.394 364.699 328.727C364.699 331.061 365.07 333.227 365.812 335.227C366.555 337.227 367.699 338.841 369.244 340.068C370.79 341.295 372.759 341.909 375.153 341.909ZM421.159 331.727V311.091H426.523V346H421.159V340.091H420.795C419.977 341.864 418.705 343.371 416.977 344.614C415.25 345.841 413.068 346.455 410.432 346.455C408.25 346.455 406.311 345.977 404.614 345.023C402.917 344.053 401.583 342.598 400.614 340.659C399.644 338.705 399.159 336.242 399.159 333.273V311.091H404.523V332.909C404.523 335.455 405.235 337.485 406.659 339C408.098 340.515 409.932 341.273 412.159 341.273C413.492 341.273 414.848 340.932 416.227 340.25C417.621 339.568 418.788 338.523 419.727 337.114C420.682 335.705 421.159 333.909 421.159 331.727Z" fill="white"/>
</svg>
