<svg width="523" height="682" viewBox="0 0 523 682" fill="none" xmlns="http://www.w3.org/2000/svg">
<rect width="523" height="682" fill="black"/>
<path d="M99.0909 341L86.3636 294.455H92.0909L101.818 332.364H102.273L112.182 294.455H118.545L128.455 332.364H128.909L138.636 294.455H144.364L131.636 341H125.818L115.545 303.909H115.182L104.909 341H99.0909ZM162.045 341.727C158.682 341.727 155.78 340.985 153.341 339.5C150.917 338 149.045 335.909 147.727 333.227C146.424 330.53 145.773 327.394 145.773 323.818C145.773 320.242 146.424 317.091 147.727 314.364C149.045 311.621 150.879 309.485 153.227 307.955C155.591 306.409 158.348 305.636 161.5 305.636C163.318 305.636 165.114 305.939 166.886 306.545C168.659 307.152 170.273 308.136 171.727 309.5C173.182 310.848 174.341 312.636 175.205 314.864C176.068 317.091 176.5 319.833 176.5 323.091V325.364H149.591V320.727H171.045C171.045 318.758 170.652 317 169.864 315.455C169.091 313.909 167.985 312.689 166.545 311.795C165.121 310.902 163.439 310.455 161.5 310.455C159.364 310.455 157.515 310.985 155.955 312.045C154.409 313.091 153.22 314.455 152.386 316.136C151.553 317.818 151.136 319.621 151.136 321.545V324.636C151.136 327.273 151.591 329.508 152.5 331.341C153.424 333.159 154.705 334.545 156.341 335.5C157.977 336.439 159.879 336.909 162.045 336.909C163.455 336.909 164.727 336.712 165.864 336.318C167.015 335.909 168.008 335.303 168.841 334.5C169.674 333.682 170.318 332.667 170.773 331.455L175.955 332.909C175.409 334.667 174.492 336.212 173.205 337.545C171.917 338.864 170.326 339.894 168.432 340.636C166.538 341.364 164.409 341.727 162.045 341.727ZM227.386 313.909L222.568 315.273C222.265 314.47 221.818 313.689 221.227 312.932C220.652 312.159 219.864 311.523 218.864 311.023C217.864 310.523 216.583 310.273 215.023 310.273C212.886 310.273 211.106 310.765 209.682 311.75C208.273 312.72 207.568 313.955 207.568 315.455C207.568 316.788 208.053 317.841 209.023 318.614C209.992 319.386 211.508 320.03 213.568 320.545L218.75 321.818C221.871 322.576 224.197 323.735 225.727 325.295C227.258 326.841 228.023 328.833 228.023 331.273C228.023 333.273 227.447 335.061 226.295 336.636C225.159 338.212 223.568 339.455 221.523 340.364C219.477 341.273 217.098 341.727 214.386 341.727C210.826 341.727 207.879 340.955 205.545 339.409C203.212 337.864 201.735 335.606 201.114 332.636L206.205 331.364C206.689 333.242 207.606 334.652 208.955 335.591C210.318 336.53 212.098 337 214.295 337C216.795 337 218.78 336.47 220.25 335.409C221.735 334.333 222.477 333.045 222.477 331.545C222.477 330.333 222.053 329.318 221.205 328.5C220.356 327.667 219.053 327.045 217.295 326.636L211.477 325.273C208.28 324.515 205.932 323.341 204.432 321.75C202.947 320.144 202.205 318.136 202.205 315.727C202.205 313.758 202.758 312.015 203.864 310.5C204.985 308.985 206.508 307.795 208.432 306.932C210.371 306.068 212.568 305.636 215.023 305.636C218.477 305.636 221.189 306.394 223.159 307.909C225.144 309.424 226.553 311.424 227.386 313.909ZM250.733 341.727C247.369 341.727 244.468 340.985 242.028 339.5C239.604 338 237.733 335.909 236.415 333.227C235.112 330.53 234.46 327.394 234.46 323.818C234.46 320.242 235.112 317.091 236.415 314.364C237.733 311.621 239.566 309.485 241.915 307.955C244.278 306.409 247.036 305.636 250.188 305.636C252.006 305.636 253.801 305.939 255.574 306.545C257.347 307.152 258.96 308.136 260.415 309.5C261.869 310.848 263.028 312.636 263.892 314.864C264.756 317.091 265.188 319.833 265.188 323.091V325.364H238.278V320.727H259.733C259.733 318.758 259.339 317 258.551 315.455C257.778 313.909 256.672 312.689 255.233 311.795C253.809 310.902 252.127 310.455 250.188 310.455C248.051 310.455 246.203 310.985 244.642 312.045C243.097 313.091 241.907 314.455 241.074 316.136C240.241 317.818 239.824 319.621 239.824 321.545V324.636C239.824 327.273 240.278 329.508 241.188 331.341C242.112 333.159 243.392 334.545 245.028 335.5C246.665 336.439 248.566 336.909 250.733 336.909C252.142 336.909 253.415 336.712 254.551 336.318C255.703 335.909 256.695 335.303 257.528 334.5C258.362 333.682 259.006 332.667 259.46 331.455L264.642 332.909C264.097 334.667 263.18 336.212 261.892 337.545C260.604 338.864 259.013 339.894 257.119 340.636C255.225 341.364 253.097 341.727 250.733 341.727ZM287.983 341.727C284.619 341.727 281.718 340.985 279.278 339.5C276.854 338 274.983 335.909 273.665 333.227C272.362 330.53 271.71 327.394 271.71 323.818C271.71 320.242 272.362 317.091 273.665 314.364C274.983 311.621 276.816 309.485 279.165 307.955C281.528 306.409 284.286 305.636 287.438 305.636C289.256 305.636 291.051 305.939 292.824 306.545C294.597 307.152 296.21 308.136 297.665 309.5C299.119 310.848 300.278 312.636 301.142 314.864C302.006 317.091 302.438 319.833 302.438 323.091V325.364H275.528V320.727H296.983C296.983 318.758 296.589 317 295.801 315.455C295.028 313.909 293.922 312.689 292.483 311.795C291.059 310.902 289.377 310.455 287.438 310.455C285.301 310.455 283.453 310.985 281.892 312.045C280.347 313.091 279.157 314.455 278.324 316.136C277.491 317.818 277.074 319.621 277.074 321.545V324.636C277.074 327.273 277.528 329.508 278.438 331.341C279.362 333.159 280.642 334.545 282.278 335.5C283.915 336.439 285.816 336.909 287.983 336.909C289.392 336.909 290.665 336.712 291.801 336.318C292.953 335.909 293.945 335.303 294.778 334.5C295.612 333.682 296.256 332.667 296.71 331.455L301.892 332.909C301.347 334.667 300.43 336.212 299.142 337.545C297.854 338.864 296.263 339.894 294.369 340.636C292.475 341.364 290.347 341.727 287.983 341.727ZM332.051 354.091C331.142 354.091 330.331 354.015 329.619 353.864C328.907 353.727 328.415 353.591 328.142 353.455L329.506 348.727C330.809 349.061 331.96 349.182 332.96 349.091C333.96 349 334.847 348.553 335.619 347.75C336.407 346.962 337.127 345.682 337.778 343.909L338.778 341.182L325.869 306.091H331.688L341.324 333.909H341.688L351.324 306.091H357.142L342.324 346.091C341.657 347.894 340.831 349.386 339.847 350.568C338.862 351.765 337.718 352.652 336.415 353.227C335.127 353.803 333.672 354.091 332.051 354.091ZM377.153 341.727C374.002 341.727 371.237 340.977 368.858 339.477C366.494 337.977 364.646 335.879 363.312 333.182C361.994 330.485 361.335 327.333 361.335 323.727C361.335 320.091 361.994 316.917 363.312 314.205C364.646 311.492 366.494 309.386 368.858 307.886C371.237 306.386 374.002 305.636 377.153 305.636C380.305 305.636 383.063 306.386 385.426 307.886C387.805 309.386 389.653 311.492 390.972 314.205C392.305 316.917 392.972 320.091 392.972 323.727C392.972 327.333 392.305 330.485 390.972 333.182C389.653 335.879 387.805 337.977 385.426 339.477C383.063 340.977 380.305 341.727 377.153 341.727ZM377.153 336.909C379.547 336.909 381.517 336.295 383.062 335.068C384.608 333.841 385.752 332.227 386.494 330.227C387.237 328.227 387.608 326.061 387.608 323.727C387.608 321.394 387.237 319.22 386.494 317.205C385.752 315.189 384.608 313.561 383.062 312.318C381.517 311.076 379.547 310.455 377.153 310.455C374.759 310.455 372.79 311.076 371.244 312.318C369.699 313.561 368.555 315.189 367.812 317.205C367.07 319.22 366.699 321.394 366.699 323.727C366.699 326.061 367.07 328.227 367.812 330.227C368.555 332.227 369.699 333.841 371.244 335.068C372.79 336.295 374.759 336.909 377.153 336.909ZM423.159 326.727V306.091H428.523V341H423.159V335.091H422.795C421.977 336.864 420.705 338.371 418.977 339.614C417.25 340.841 415.068 341.455 412.432 341.455C410.25 341.455 408.311 340.977 406.614 340.023C404.917 339.053 403.583 337.598 402.614 335.659C401.644 333.705 401.159 331.242 401.159 328.273V306.091H406.523V327.909C406.523 330.455 407.235 332.485 408.659 334C410.098 335.515 411.932 336.273 414.159 336.273C415.492 336.273 416.848 335.932 418.227 335.25C419.621 334.568 420.788 333.523 421.727 332.114C422.682 330.705 423.159 328.909 423.159 326.727Z" fill="white"/>
</svg>
