<svg width="1201" height="817" viewBox="0 0 1201 817" fill="none" xmlns="http://www.w3.org/2000/svg">
<rect width="1201" height="817" fill="#1E1E1E"/>
<g clip-path="url(#clip0_0_1)">
<rect width="1201" height="817" fill="black"/>
<path fill-rule="evenodd" clip-rule="evenodd" d="M1116 273.333C1140.85 273.333 1161 254.231 1161 230.667C1161 207.103 1140.85 188 1116 188C1091.15 188 1071 207.103 1071 230.667C1071 254.231 1091.15 273.333 1116 273.333ZM1116.17 265.215C1136.32 265.215 1152.67 249.721 1152.67 230.607C1152.67 211.494 1136.32 196 1116.17 196C1096.01 196 1079.67 211.494 1079.67 230.607C1079.67 249.721 1096.01 265.215 1116.17 265.215Z" fill="white"/>
<path fill-rule="evenodd" clip-rule="evenodd" d="M1016 513.333C1040.85 513.333 1061 494.231 1061 470.667C1061 447.103 1040.85 428 1016 428C991.147 428 971 447.103 971 470.667C971 494.231 991.147 513.333 1016 513.333ZM1016.17 505.215C1036.32 505.215 1052.67 489.721 1052.67 470.607C1052.67 451.494 1036.32 436 1016.17 436C996.008 436 979.667 451.494 979.667 470.607C979.667 489.721 996.008 505.215 1016.17 505.215Z" fill="white"/>
<path fill-rule="evenodd" clip-rule="evenodd" d="M88 181.333C112.853 181.333 133 162.231 133 138.667C133 115.103 112.853 96 88 96C63.1472 96 43 115.103 43 138.667C43 162.231 63.1472 181.333 88 181.333ZM88.1666 173.215C108.325 173.215 124.667 157.721 124.667 138.607C124.667 119.494 108.325 104 88.1666 104C68.0082 104 51.6666 119.494 51.6666 138.607C51.6666 157.721 68.0082 173.215 88.1666 173.215Z" fill="white"/>
<path fill-rule="evenodd" clip-rule="evenodd" d="M102 593.333C126.853 593.333 147 574.231 147 550.667C147 527.103 126.853 508 102 508C77.1472 508 57 527.103 57 550.667C57 574.231 77.1472 593.333 102 593.333ZM102.167 585.215C122.325 585.215 138.667 569.721 138.667 550.607C138.667 531.494 122.325 516 102.167 516C82.0082 516 65.6666 531.494 65.6666 550.607C65.6666 569.721 82.0082 585.215 102.167 585.215Z" fill="white"/>
<path fill-rule="evenodd" clip-rule="evenodd" d="M1102 754.333C1126.85 754.333 1147 735.231 1147 711.667C1147 688.103 1126.85 669 1102 669C1077.15 669 1057 688.103 1057 711.667C1057 735.231 1077.15 754.333 1102 754.333ZM1102.17 746.215C1122.32 746.215 1138.67 730.721 1138.67 711.607C1138.67 692.494 1122.32 677 1102.17 677C1082.01 677 1065.67 692.494 1065.67 711.607C1065.67 730.721 1082.01 746.215 1102.17 746.215Z" fill="white"/>
<path d="M1074 123L1102.5 196" stroke="white" stroke-width="18"/>
<path fill-rule="evenodd" clip-rule="evenodd" d="M228.5 386.563C241.479 386.563 252 376.587 252 364.281C252 351.976 241.479 342 228.5 342C215.521 342 205 351.976 205 364.281C205 376.587 215.521 386.563 228.5 386.563ZM228.587 382.323C239.114 382.323 247.648 374.232 247.648 364.251C247.648 354.269 239.114 346.178 228.587 346.178C218.06 346.178 209.526 354.269 209.526 364.251C209.526 374.232 218.06 382.323 228.587 382.323Z" fill="white"/>
<path d="M215 379L176.5 447.5" stroke="white" stroke-width="8"/>
<path d="M143 557C143 557.497 178.333 572.541 196 580" stroke="white" stroke-width="8"/>
<path d="M214.5 610L175.5 831.5" stroke="white" stroke-width="8"/>
<path fill-rule="evenodd" clip-rule="evenodd" d="M216.5 612.563C229.479 612.563 240 602.587 240 590.281C240 577.976 229.479 568 216.5 568C203.521 568 193 577.976 193 590.281C193 602.587 203.521 612.563 216.5 612.563ZM216.587 608.323C227.114 608.323 235.648 600.232 235.648 590.251C235.648 580.269 227.114 572.178 216.587 572.178C206.06 572.178 197.526 580.269 197.526 590.251C197.526 600.232 206.06 608.323 216.587 608.323Z" fill="white"/>
<path fill-rule="evenodd" clip-rule="evenodd" d="M996.5 308.563C1009.48 308.563 1020 298.587 1020 286.281C1020 273.976 1009.48 264 996.5 264C983.521 264 973 273.976 973 286.281C973 298.587 983.521 308.563 996.5 308.563ZM996.587 304.323C1007.11 304.323 1015.65 296.232 1015.65 286.251C1015.65 276.269 1007.11 268.178 996.587 268.178C986.06 268.178 977.526 276.269 977.526 286.251C977.526 296.232 986.06 304.323 996.587 304.323Z" fill="white"/>
<path fill-rule="evenodd" clip-rule="evenodd" d="M1016.5 635.563C1029.48 635.563 1040 625.587 1040 613.281C1040 600.976 1029.48 591 1016.5 591C1003.52 591 993 600.976 993 613.281C993 625.587 1003.52 635.563 1016.5 635.563ZM1016.59 631.323C1027.11 631.323 1035.65 623.232 1035.65 613.251C1035.65 603.269 1027.11 595.178 1016.59 595.178C1006.06 595.178 997.526 603.269 997.526 613.251C997.526 623.232 1006.06 631.323 1016.59 631.323Z" fill="white"/>
<path d="M1111.5 270V333" stroke="white" stroke-width="17"/>
<path d="M1090 386.5L1042 439.5" stroke="white" stroke-width="17"/>
<path d="M1047 497.5L1119 534.5" stroke="white" stroke-width="17"/>
<path d="M1138.5 575L1115 675" stroke="white" stroke-width="19"/>
<path fill-rule="evenodd" clip-rule="evenodd" d="M1061.5 128.422C1080.55 128.422 1096 113.777 1096 95.7111C1096 77.6453 1080.55 63 1061.5 63C1042.45 63 1027 77.6453 1027 95.7111C1027 113.777 1042.45 128.422 1061.5 128.422ZM1061.63 122.198C1077.08 122.198 1089.61 110.319 1089.61 95.6657C1089.61 81.0123 1077.08 69.1334 1061.63 69.1334C1046.17 69.1334 1033.64 81.0123 1033.64 95.6657C1033.64 110.319 1046.17 122.198 1061.63 122.198Z" fill="white"/>
<path fill-rule="evenodd" clip-rule="evenodd" d="M1147.5 578.422C1166.55 578.422 1182 563.777 1182 545.711C1182 527.645 1166.55 513 1147.5 513C1128.45 513 1113 527.645 1113 545.711C1113 563.777 1128.45 578.422 1147.5 578.422ZM1147.63 572.198C1163.08 572.198 1175.61 560.319 1175.61 545.666C1175.61 531.012 1163.08 519.133 1147.63 519.133C1132.17 519.133 1119.64 531.012 1119.64 545.666C1119.64 560.319 1132.17 572.198 1147.63 572.198Z" fill="white"/>
<path fill-rule="evenodd" clip-rule="evenodd" d="M102.5 732.422C121.554 732.422 137 717.777 137 699.711C137 681.645 121.554 667 102.5 667C83.4462 667 68 681.645 68 699.711C68 717.777 83.4462 732.422 102.5 732.422ZM102.627 726.198C118.082 726.198 130.611 714.319 130.611 699.666C130.611 685.012 118.082 673.133 102.627 673.133C87.1727 673.133 74.6441 685.012 74.6441 699.666C74.6441 714.319 87.1727 726.198 102.627 726.198Z" fill="white"/>
<path fill-rule="evenodd" clip-rule="evenodd" d="M1108.5 396.422C1127.55 396.422 1143 381.777 1143 363.711C1143 345.645 1127.55 331 1108.5 331C1089.45 331 1074 345.645 1074 363.711C1074 381.777 1089.45 396.422 1108.5 396.422ZM1108.63 390.198C1124.08 390.198 1136.61 378.319 1136.61 363.666C1136.61 349.012 1124.08 337.133 1108.63 337.133C1093.17 337.133 1080.64 349.012 1080.64 363.666C1080.64 378.319 1093.17 390.198 1108.63 390.198Z" fill="white"/>
<path fill-rule="evenodd" clip-rule="evenodd" d="M74.5 411.422C93.5538 411.422 109 396.777 109 378.711C109 360.645 93.5538 346 74.5 346C55.4462 346 40 360.645 40 378.711C40 396.777 55.4462 411.422 74.5 411.422ZM74.6274 405.198C90.0822 405.198 102.611 393.319 102.611 378.666C102.611 364.012 90.0822 352.133 74.6274 352.133C59.1727 352.133 46.6441 364.012 46.6441 378.666C46.6441 393.319 59.1727 405.198 74.6274 405.198Z" fill="white"/>
<path fill-rule="evenodd" clip-rule="evenodd" d="M158.5 296.422C177.554 296.422 193 281.777 193 263.711C193 245.645 177.554 231 158.5 231C139.446 231 124 245.645 124 263.711C124 281.777 139.446 296.422 158.5 296.422ZM158.627 290.198C174.082 290.198 186.611 278.319 186.611 263.666C186.611 249.012 174.082 237.133 158.627 237.133C143.173 237.133 130.644 249.012 130.644 263.666C130.644 278.319 143.173 290.198 158.627 290.198Z" fill="white"/>
<path d="M68 -3L83 100" stroke="white" stroke-width="19"/>
<path d="M137 286L87 354" stroke="white" stroke-width="19"/>
<path d="M93.5 511.5L80 407" stroke="white" stroke-width="19"/>
<path d="M243 264L229.382 344.024" stroke="white" stroke-width="11"/>
<path d="M97 177L146 236" stroke="white" stroke-width="11"/>
<path d="M117 726L153 824" stroke="white" stroke-width="18"/>
<path d="M207.5 370L106 384" stroke="white" stroke-width="8"/>
<path d="M1030.5 628.5L1076.5 682" stroke="white" stroke-width="11"/>
<path d="M1013.5 299L1081 349.5" stroke="white" stroke-width="11"/>
<path d="M996 306.5L1008 432.5" stroke="white" stroke-width="11"/>
<path d="M1128 195C1129.06 188.703 1150.44 50.3764 1161 -18" stroke="white" stroke-width="24"/>
<path d="M1098.5 750.5L1093.5 831" stroke="white" stroke-width="24"/>
<rect x="1111.26" y="78.112" width="65" height="37" transform="rotate(-24.4519 1111.26 78.112)" fill="black"/>
</g>
<defs>
<clipPath id="clip0_0_1">
<rect width="1201" height="817" fill="white"/>
</clipPath>
</defs>
</svg>
