<svg width="1201" height="817" viewBox="0 0 1201 817" fill="none" xmlns="http://www.w3.org/2000/svg">
<rect width="1201" height="817" fill="#1E1E1E"/>
<g clip-path="url(#clip0_0_1)">
<rect width="1201" height="817" fill="black"/>
<path d="M114.689 113.804C105.273 120.314 93.5457 122.659 82.0878 120.321C70.63 117.983 60.3798 111.155 53.5923 101.338C46.8048 91.5215 44.036 79.5205 45.8948 67.9753C47.7537 56.4301 54.088 46.2864 63.5044 39.7757L89.0967 76.7897L114.689 113.804Z" fill="white"/>
<path d="M118.802 585.58C111.668 590.513 103.15 593.09 94.359 592.977C85.5677 592.864 76.9108 590.065 69.5166 584.945C62.1224 579.826 56.3339 572.622 52.9056 564.275C49.4773 555.927 48.5682 546.822 50.2968 538.147C52.0254 529.471 56.3116 521.628 62.5966 515.639C68.8816 509.649 76.8739 505.792 85.5318 504.57C94.1897 503.348 103.112 504.817 111.134 508.786C119.157 512.755 125.909 519.041 130.51 526.823L93.2097 548.566L118.802 585.58Z" fill="white"/>
<path d="M109.709 106.305C105.929 108.919 101.663 110.752 97.1555 111.7C92.6481 112.647 87.9873 112.691 83.4393 111.828C78.8912 110.964 74.545 109.212 70.6487 106.669C66.7525 104.127 63.3825 100.845 60.7311 97.0102C58.0798 93.1756 56.1991 88.8637 55.1963 84.3207C54.1936 79.7777 54.0885 75.0925 54.887 70.5327C55.6855 65.9728 57.372 61.6277 59.8502 57.7452C62.3283 53.8628 65.5497 50.5191 69.3303 47.9051L89.5198 77.105L109.709 106.305Z" fill="black"/>
<path d="M113.822 578.081C108.038 582.081 101.166 584.22 94.1012 584.221C87.0367 584.221 80.1077 582.082 74.2173 578.083C68.3269 574.085 63.7483 568.411 61.0782 561.802C58.408 555.193 57.7703 547.955 59.2481 541.032C60.7258 534.109 64.2505 527.821 69.3628 522.989C74.4751 518.157 80.9378 515.003 87.9087 513.941C94.8795 512.878 102.035 513.954 108.443 517.03C114.851 520.106 120.214 525.039 123.832 531.185L93.6328 548.882L113.822 578.081Z" fill="black"/>
<path fill-rule="evenodd" clip-rule="evenodd" d="M1116 273.333C1140.85 273.333 1161 254.231 1161 230.667C1161 207.103 1140.85 188 1116 188C1091.15 188 1071 207.103 1071 230.667C1071 254.231 1091.15 273.333 1116 273.333ZM1116.17 265.215C1136.32 265.215 1152.67 249.721 1152.67 230.607C1152.67 211.494 1136.32 196 1116.17 196C1096.01 196 1079.67 211.494 1079.67 230.607C1079.67 249.721 1096.01 265.215 1116.17 265.215Z" fill="white"/>
<path fill-rule="evenodd" clip-rule="evenodd" d="M1016 513.333C1040.85 513.333 1061 494.231 1061 470.667C1061 447.103 1040.85 428 1016 428C991.147 428 971 447.103 971 470.667C971 494.231 991.147 513.333 1016 513.333ZM1016.17 505.215C1036.32 505.215 1052.67 489.721 1052.67 470.607C1052.67 451.494 1036.32 436 1016.17 436C996.008 436 979.667 451.494 979.667 470.607C979.667 489.721 996.008 505.215 1016.17 505.215Z" fill="white"/>
<path fill-rule="evenodd" clip-rule="evenodd" d="M1102 754.333C1126.85 754.333 1147 735.231 1147 711.667C1147 688.103 1126.85 669 1102 669C1077.15 669 1057 688.103 1057 711.667C1057 735.231 1077.15 754.333 1102 754.333ZM1102.17 746.215C1122.32 746.215 1138.67 730.721 1138.67 711.607C1138.67 692.494 1122.32 677 1102.17 677C1082.01 677 1065.67 692.494 1065.67 711.607C1065.67 730.721 1082.01 746.215 1102.17 746.215Z" fill="white"/>
<path d="M1074 123L1102.5 196" stroke="white" stroke-width="18"/>
<path fill-rule="evenodd" clip-rule="evenodd" d="M228.5 386.563C241.479 386.563 252 376.587 252 364.281C252 351.976 241.479 342 228.5 342C215.521 342 205 351.976 205 364.281C205 376.587 215.521 386.563 228.5 386.563ZM228.587 382.323C239.114 382.323 247.648 374.232 247.648 364.251C247.648 354.269 239.114 346.178 228.587 346.178C218.06 346.178 209.526 354.269 209.526 364.251C209.526 374.232 218.06 382.323 228.587 382.323Z" fill="white"/>
<path d="M215 379L176.5 447.5" stroke="white" stroke-width="8"/>
<path d="M170 482C170 484 194 544.5 206 574.5" stroke="white" stroke-width="8"/>
<path d="M214.5 610L175.5 831.5" stroke="white" stroke-width="8"/>
<path d="M48 212.5L66.5 239.5" stroke="white" stroke-width="8"/>
<path fill-rule="evenodd" clip-rule="evenodd" d="M216.5 612.563C229.479 612.563 240 602.587 240 590.281C240 577.976 229.479 568 216.5 568C203.521 568 193 577.976 193 590.281C193 602.587 203.521 612.563 216.5 612.563ZM216.587 608.323C227.114 608.323 235.648 600.232 235.648 590.251C235.648 580.269 227.114 572.178 216.587 572.178C206.06 572.178 197.526 580.269 197.526 590.251C197.526 600.232 206.06 608.323 216.587 608.323Z" fill="white"/>
<path d="M64 193.281C64 197.688 62.6217 201.996 60.0395 205.66C57.4573 209.325 53.7871 212.18 49.4931 213.867C45.199 215.553 40.4739 215.995 35.9154 215.135C31.3568 214.275 27.1695 212.153 23.883 209.037C20.5965 205.921 18.3583 201.951 17.4515 197.628C16.5448 193.306 17.0102 188.826 18.7888 184.755C20.5675 180.683 23.5795 177.203 27.4441 174.755C31.3087 172.307 35.8521 171 40.5 171L40.5 193.281H64Z" fill="white"/>
<path d="M59.648 193.251C59.648 196.825 58.5301 200.319 56.4356 203.291C54.3411 206.263 51.3642 208.58 47.8812 209.948C44.3983 211.315 40.5657 211.673 36.8682 210.976C33.1707 210.279 29.7744 208.557 27.1086 206.03C24.4429 203.502 22.6275 200.282 21.892 196.776C21.1565 193.271 21.534 189.637 22.9767 186.334C24.4194 183.032 26.8625 180.209 29.9971 178.224C33.1317 176.238 36.8169 175.178 40.5869 175.178L40.5869 193.251H59.648Z" fill="black"/>
<path fill-rule="evenodd" clip-rule="evenodd" d="M996.5 308.563C1009.48 308.563 1020 298.587 1020 286.281C1020 273.976 1009.48 264 996.5 264C983.521 264 973 273.976 973 286.281C973 298.587 983.521 308.563 996.5 308.563ZM996.587 304.323C1007.11 304.323 1015.65 296.232 1015.65 286.251C1015.65 276.269 1007.11 268.178 996.587 268.178C986.06 268.178 977.526 276.269 977.526 286.251C977.526 296.232 986.06 304.323 996.587 304.323Z" fill="white"/>
<path fill-rule="evenodd" clip-rule="evenodd" d="M1016.5 635.563C1029.48 635.563 1040 625.587 1040 613.281C1040 600.976 1029.48 591 1016.5 591C1003.52 591 993 600.976 993 613.281C993 625.587 1003.52 635.563 1016.5 635.563ZM1016.59 631.323C1027.11 631.323 1035.65 623.232 1035.65 613.251C1035.65 603.269 1027.11 595.178 1016.59 595.178C1006.06 595.178 997.526 603.269 997.526 613.251C997.526 623.232 1006.06 631.323 1016.59 631.323Z" fill="white"/>
<path d="M1111.5 270V333" stroke="white" stroke-width="17"/>
<path d="M1090 386.5L1042 439.5" stroke="white" stroke-width="17"/>
<path d="M1047 497.5L1119 534.5" stroke="white" stroke-width="17"/>
<path d="M1138.5 575L1115 675" stroke="white" stroke-width="19"/>
<path d="M79.7378 146.252L27.2622 138.748" stroke="white" stroke-width="11"/>
<path d="M164.885 233.278C158.778 235.413 152.141 235.59 145.812 233.787C139.483 231.984 133.747 228.281 129.329 223.147C124.911 218.014 122.011 211.679 120.994 204.945C119.976 198.211 120.889 191.38 123.615 185.316C126.341 179.252 130.759 174.226 136.309 170.876C141.86 167.525 148.294 165.999 154.798 166.492C161.302 166.984 167.584 169.472 172.849 173.642C178.114 177.811 182.127 183.475 184.378 189.916L153.5 200.711L164.885 233.278Z" fill="white"/>
<path d="M163.063 227.524C157.448 229.487 151.3 229.403 145.606 227.285C139.912 225.168 135.003 221.14 131.667 215.847C128.331 210.555 126.761 204.306 127.209 198.104C127.658 191.901 130.099 186.105 134.14 181.645C138.181 177.186 143.589 174.322 149.494 173.514C155.4 172.706 161.46 174 166.703 177.189C171.945 180.377 176.066 185.276 178.403 191.097C180.74 196.918 181.158 203.325 179.589 209.289L153.828 201.108L163.063 227.524Z" fill="black"/>
<path fill-rule="evenodd" clip-rule="evenodd" d="M1061.5 128.422C1080.55 128.422 1096 113.777 1096 95.7111C1096 77.6453 1080.55 63 1061.5 63C1042.45 63 1027 77.6453 1027 95.7111C1027 113.777 1042.45 128.422 1061.5 128.422ZM1061.63 122.198C1077.08 122.198 1089.61 110.319 1089.61 95.6657C1089.61 81.0123 1077.08 69.1334 1061.63 69.1334C1046.17 69.1334 1033.64 81.0123 1033.64 95.6657C1033.64 110.319 1046.17 122.198 1061.63 122.198Z" fill="white"/>
<path fill-rule="evenodd" clip-rule="evenodd" d="M1147.5 578.422C1166.55 578.422 1182 563.777 1182 545.711C1182 527.645 1166.55 513 1147.5 513C1128.45 513 1113 527.645 1113 545.711C1113 563.777 1128.45 578.422 1147.5 578.422ZM1147.63 572.198C1163.08 572.198 1175.61 560.319 1175.61 545.666C1175.61 531.012 1163.08 519.133 1147.63 519.133C1132.17 519.133 1119.64 531.012 1119.64 545.666C1119.64 560.319 1132.17 572.198 1147.63 572.198Z" fill="white"/>
<path fill-rule="evenodd" clip-rule="evenodd" d="M1108.5 396.422C1127.55 396.422 1143 381.777 1143 363.711C1143 345.645 1127.55 331 1108.5 331C1089.45 331 1074 345.645 1074 363.711C1074 381.777 1089.45 396.422 1108.5 396.422ZM1108.63 390.198C1124.08 390.198 1136.61 378.319 1136.61 363.666C1136.61 349.012 1124.08 337.133 1108.63 337.133C1093.17 337.133 1080.64 349.012 1080.64 363.666C1080.64 378.319 1093.17 390.198 1108.63 390.198Z" fill="white"/>
<path d="M960 56L1027 0" stroke="white" stroke-width="18"/>
<path fill-rule="evenodd" clip-rule="evenodd" d="M74.5 411.422C93.5538 411.422 109 396.777 109 378.711C109 360.645 93.5538 346 74.5 346C55.4462 346 40 360.645 40 378.711C40 396.777 55.4462 411.422 74.5 411.422ZM74.6274 405.198C90.0822 405.198 102.611 393.319 102.611 378.666C102.611 364.012 90.0822 352.133 74.6274 352.133C59.1727 352.133 46.6441 364.012 46.6441 378.666C46.6441 393.319 59.1727 405.198 74.6274 405.198Z" fill="white"/>
<path d="M139 701.711C139 707.09 137.601 712.387 134.926 717.131C132.252 721.875 128.385 725.921 123.667 728.909C118.95 731.898 113.528 733.737 107.882 734.265C102.235 734.792 96.5391 733.991 91.2974 731.932C86.0557 729.874 81.4304 726.621 77.8311 722.463C74.2319 718.305 71.7698 713.369 70.6629 708.093C69.5561 702.817 69.8386 697.363 71.4856 692.216C73.1325 687.068 76.093 682.385 80.1048 678.581L104.5 701.711H139Z" fill="white"/>
<path d="M132.611 701.666C132.611 706.029 131.476 710.325 129.307 714.173C127.137 718.021 124.001 721.302 120.174 723.726C116.348 726.151 111.95 727.643 107.37 728.07C102.791 728.498 98.1703 727.848 93.9187 726.178C89.6671 724.509 85.9155 721.87 82.9961 718.498C80.0767 715.125 78.0796 711.121 77.1819 706.842C76.2841 702.562 76.5133 698.139 77.8491 693.964C79.185 689.788 81.5863 685.99 84.8403 682.904L104.627 701.666H132.611Z" fill="black"/>
<path fill-rule="evenodd" clip-rule="evenodd" d="M84.5 296.422C103.554 296.422 119 281.777 119 263.711C119 245.645 103.554 231 84.5 231C65.4462 231 50 245.645 50 263.711C50 281.777 65.4462 296.422 84.5 296.422ZM84.6274 290.198C100.082 290.198 112.611 278.319 112.611 263.666C112.611 249.012 100.082 237.133 84.6274 237.133C69.1727 237.133 56.6441 249.012 56.6441 263.666C56.6441 278.319 69.1727 290.198 84.6274 290.198Z" fill="white"/>
<path d="M68 -3L109 43" stroke="white" stroke-width="19"/>
<path d="M84 293L80 349" stroke="white" stroke-width="19"/>
<path d="M93.5 511.5L80 407" stroke="white" stroke-width="19"/>
<path d="M244 264L230 344" stroke="white" stroke-width="11"/>
<path d="M99 587L60 672" stroke="white" stroke-width="18"/>
<path d="M113 730.5L153.5 824" stroke="white" stroke-width="18"/>
<path d="M207.5 370L106 384" stroke="white" stroke-width="8"/>
<path d="M200 603.5L131 685" stroke="white" stroke-width="8"/>
<path d="M1030.5 628.5L1076.5 682" stroke="white" stroke-width="11"/>
<path d="M1013.5 299L1081 349.5" stroke="white" stroke-width="11"/>
<path d="M996 306.5L1008 432.5" stroke="white" stroke-width="11"/>
<path d="M1128 195C1129.06 188.703 1150.44 50.3764 1161 -18" stroke="white" stroke-width="24"/>
<path d="M1098.5 750.5L1093.5 831" stroke="white" stroke-width="24"/>
<rect x="1111.26" y="78.112" width="65" height="37" transform="rotate(-24.4519 1111.26 78.112)" fill="black"/>
</g>
<defs>
<clipPath id="clip0_0_1">
<rect width="1201" height="817" fill="white"/>
</clipPath>
</defs>
</svg>
