<svg width="1201" height="817" viewBox="0 0 1201 817" fill="none" xmlns="http://www.w3.org/2000/svg">
<rect width="1201" height="817" fill="#1E1E1E"/>
<g clip-path="url(#clip0_0_1)">
<rect width="1201" height="817" fill="black"/>
<path fill-rule="evenodd" clip-rule="evenodd" d="M87 128.333C111.853 128.333 132 109.231 132 85.6667C132 62.1025 111.853 43 87 43C62.1472 43 42 62.1025 42 85.6667C42 109.231 62.1472 128.333 87 128.333ZM87.1666 120.215C107.325 120.215 123.667 104.721 123.667 85.6074C123.667 66.4943 107.325 51 87.1666 51C67.0082 51 50.6666 66.4943 50.6666 85.6074C50.6666 104.721 67.0082 120.215 87.1666 120.215Z" fill="white"/>
<path fill-rule="evenodd" clip-rule="evenodd" d="M1116 273.333C1140.85 273.333 1161 254.231 1161 230.667C1161 207.103 1140.85 188 1116 188C1091.15 188 1071 207.103 1071 230.667C1071 254.231 1091.15 273.333 1116 273.333ZM1116.17 265.215C1136.32 265.215 1152.67 249.721 1152.67 230.607C1152.67 211.494 1136.32 196 1116.17 196C1096.01 196 1079.67 211.494 1079.67 230.607C1079.67 249.721 1096.01 265.215 1116.17 265.215Z" fill="white"/>
<path fill-rule="evenodd" clip-rule="evenodd" d="M1016 513.333C1040.85 513.333 1061 494.231 1061 470.667C1061 447.103 1040.85 428 1016 428C991.147 428 971 447.103 971 470.667C971 494.231 991.147 513.333 1016 513.333ZM1016.17 505.215C1036.32 505.215 1052.67 489.721 1052.67 470.607C1052.67 451.494 1036.32 436 1016.17 436C996.008 436 979.667 451.494 979.667 470.607C979.667 489.721 996.008 505.215 1016.17 505.215Z" fill="white"/>
<path fill-rule="evenodd" clip-rule="evenodd" d="M1102 754.333C1126.85 754.333 1147 735.231 1147 711.667C1147 688.103 1126.85 669 1102 669C1077.15 669 1057 688.103 1057 711.667C1057 735.231 1077.15 754.333 1102 754.333ZM1102.17 746.215C1122.32 746.215 1138.67 730.721 1138.67 711.607C1138.67 692.494 1122.32 677 1102.17 677C1082.01 677 1065.67 692.494 1065.67 711.607C1065.67 730.721 1082.01 746.215 1102.17 746.215Z" fill="white"/>
<path d="M1074 123L1102.5 196" stroke="white" stroke-width="18"/>
<path d="M1080.5 248L1016 279" stroke="white" stroke-width="9"/>
<path fill-rule="evenodd" clip-rule="evenodd" d="M228.5 386.563C241.479 386.563 252 376.587 252 364.281C252 351.976 241.479 342 228.5 342C215.521 342 205 351.976 205 364.281C205 376.587 215.521 386.563 228.5 386.563ZM228.587 382.323C239.114 382.323 247.648 374.232 247.648 364.251C247.648 354.269 239.114 346.178 228.587 346.178C218.06 346.178 209.526 354.269 209.526 364.251C209.526 374.232 218.06 382.323 228.587 382.323Z" fill="white"/>
<path fill-rule="evenodd" clip-rule="evenodd" d="M162.5 485.563C175.479 485.563 186 475.587 186 463.281C186 450.976 175.479 441 162.5 441C149.521 441 139 450.976 139 463.281C139 475.587 149.521 485.563 162.5 485.563ZM162.587 481.323C173.114 481.323 181.648 473.232 181.648 463.251C181.648 453.269 173.114 445.178 162.587 445.178C152.06 445.178 143.526 453.269 143.526 463.251C143.526 473.232 152.06 481.323 162.587 481.323Z" fill="white"/>
<path d="M215 379L176.5 447.5" stroke="white" stroke-width="8"/>
<path d="M152 481L125.5 519" stroke="white" stroke-width="8"/>
<path d="M170 482C170 484 194 544.5 206 574.5" stroke="white" stroke-width="8"/>
<path d="M214.5 610L175.5 831.5" stroke="white" stroke-width="8"/>
<path d="M48 212.5L66.5 239.5" stroke="white" stroke-width="8"/>
<path fill-rule="evenodd" clip-rule="evenodd" d="M216.5 612.563C229.479 612.563 240 602.587 240 590.281C240 577.976 229.479 568 216.5 568C203.521 568 193 577.976 193 590.281C193 602.587 203.521 612.563 216.5 612.563ZM216.587 608.323C227.114 608.323 235.648 600.232 235.648 590.251C235.648 580.269 227.114 572.178 216.587 572.178C206.06 572.178 197.526 580.269 197.526 590.251C197.526 600.232 206.06 608.323 216.587 608.323Z" fill="white"/>
<path fill-rule="evenodd" clip-rule="evenodd" d="M98 590.333C122.853 590.333 143 571.231 143 547.667C143 524.103 122.853 505 98 505C73.1472 505 53 524.103 53 547.667C53 571.231 73.1472 590.333 98 590.333ZM98.1666 582.215C118.325 582.215 134.667 566.721 134.667 547.607C134.667 528.494 118.325 513 98.1666 513C78.0082 513 61.6666 528.494 61.6666 547.607C61.6666 566.721 78.0082 582.215 98.1666 582.215Z" fill="white"/>
<path fill-rule="evenodd" clip-rule="evenodd" d="M40.5 215.563C53.4787 215.563 64 205.587 64 193.281C64 180.976 53.4787 171 40.5 171C27.5213 171 17 180.976 17 193.281C17 205.587 27.5213 215.563 40.5 215.563ZM40.5869 211.323C51.114 211.323 59.648 203.232 59.648 193.251C59.648 183.269 51.114 175.178 40.5869 175.178C30.0597 175.178 21.5258 183.269 21.5258 193.251C21.5258 203.232 30.0597 211.323 40.5869 211.323Z" fill="white"/>
<path fill-rule="evenodd" clip-rule="evenodd" d="M996.5 308.563C1009.48 308.563 1020 298.587 1020 286.281C1020 273.976 1009.48 264 996.5 264C983.521 264 973 273.976 973 286.281C973 298.587 983.521 308.563 996.5 308.563ZM996.587 304.323C1007.11 304.323 1015.65 296.232 1015.65 286.251C1015.65 276.269 1007.11 268.178 996.587 268.178C986.06 268.178 977.526 276.269 977.526 286.251C977.526 296.232 986.06 304.323 996.587 304.323Z" fill="white"/>
<path fill-rule="evenodd" clip-rule="evenodd" d="M1016.5 635.563C1029.48 635.563 1040 625.587 1040 613.281C1040 600.976 1029.48 591 1016.5 591C1003.52 591 993 600.976 993 613.281C993 625.587 1003.52 635.563 1016.5 635.563ZM1016.59 631.323C1027.11 631.323 1035.65 623.232 1035.65 613.251C1035.65 603.269 1027.11 595.178 1016.59 595.178C1006.06 595.178 997.526 603.269 997.526 613.251C997.526 623.232 1006.06 631.323 1016.59 631.323Z" fill="white"/>
<path d="M1111.5 270V333" stroke="white" stroke-width="17"/>
<path d="M1090 386.5L1042 439.5" stroke="white" stroke-width="17"/>
<path d="M1047 497.5L1119 534.5" stroke="white" stroke-width="17"/>
<path d="M1013.5 510L1017 592.5" stroke="white" stroke-width="8"/>
<path d="M1138.5 575L1115 675" stroke="white" stroke-width="19"/>
<path d="M48 174.5L69.5 121.5" stroke="white" stroke-width="11"/>
<path fill-rule="evenodd" clip-rule="evenodd" d="M196.5 223.422C215.554 223.422 231 208.777 231 190.711C231 172.645 215.554 158 196.5 158C177.446 158 162 172.645 162 190.711C162 208.777 177.446 223.422 196.5 223.422ZM196.627 217.198C212.082 217.198 224.611 205.319 224.611 190.666C224.611 176.012 212.082 164.133 196.627 164.133C181.173 164.133 168.644 176.012 168.644 190.666C168.644 205.319 181.173 217.198 196.627 217.198Z" fill="white"/>
<path fill-rule="evenodd" clip-rule="evenodd" d="M1061.5 128.422C1080.55 128.422 1096 113.777 1096 95.7111C1096 77.6453 1080.55 63 1061.5 63C1042.45 63 1027 77.6453 1027 95.7111C1027 113.777 1042.45 128.422 1061.5 128.422ZM1061.63 122.198C1077.08 122.198 1089.61 110.319 1089.61 95.6657C1089.61 81.0123 1077.08 69.1334 1061.63 69.1334C1046.17 69.1334 1033.64 81.0123 1033.64 95.6657C1033.64 110.319 1046.17 122.198 1061.63 122.198Z" fill="white"/>
<path fill-rule="evenodd" clip-rule="evenodd" d="M1147.5 578.422C1166.55 578.422 1182 563.777 1182 545.711C1182 527.645 1166.55 513 1147.5 513C1128.45 513 1113 527.645 1113 545.711C1113 563.777 1128.45 578.422 1147.5 578.422ZM1147.63 572.198C1163.08 572.198 1175.61 560.319 1175.61 545.666C1175.61 531.012 1163.08 519.133 1147.63 519.133C1132.17 519.133 1119.64 531.012 1119.64 545.666C1119.64 560.319 1132.17 572.198 1147.63 572.198Z" fill="white"/>
<path fill-rule="evenodd" clip-rule="evenodd" d="M1108.5 396.422C1127.55 396.422 1143 381.777 1143 363.711C1143 345.645 1127.55 331 1108.5 331C1089.45 331 1074 345.645 1074 363.711C1074 381.777 1089.45 396.422 1108.5 396.422ZM1108.63 390.198C1124.08 390.198 1136.61 378.319 1136.61 363.666C1136.61 349.012 1124.08 337.133 1108.63 337.133C1093.17 337.133 1080.64 349.012 1080.64 363.666C1080.64 378.319 1093.17 390.198 1108.63 390.198Z" fill="white"/>
<path d="M1067.5 66.5L1075.5 -25" stroke="white" stroke-width="18"/>
<path fill-rule="evenodd" clip-rule="evenodd" d="M74.5 411.422C93.5538 411.422 109 396.777 109 378.711C109 360.645 93.5538 346 74.5 346C55.4462 346 40 360.645 40 378.711C40 396.777 55.4462 411.422 74.5 411.422ZM74.6274 405.198C90.0822 405.198 102.611 393.319 102.611 378.666C102.611 364.012 90.0822 352.133 74.6274 352.133C59.1727 352.133 46.6441 364.012 46.6441 378.666C46.6441 393.319 59.1727 405.198 74.6274 405.198Z" fill="white"/>
<path fill-rule="evenodd" clip-rule="evenodd" d="M104.5 734.422C123.554 734.422 139 719.777 139 701.711C139 683.645 123.554 669 104.5 669C85.4462 669 70 683.645 70 701.711C70 719.777 85.4462 734.422 104.5 734.422ZM104.627 728.198C120.082 728.198 132.611 716.319 132.611 701.666C132.611 687.012 120.082 675.133 104.627 675.133C89.1727 675.133 76.6441 687.012 76.6441 701.666C76.6441 716.319 89.1727 728.198 104.627 728.198Z" fill="white"/>
<path fill-rule="evenodd" clip-rule="evenodd" d="M84.5 296.422C103.554 296.422 119 281.777 119 263.711C119 245.645 103.554 231 84.5 231C65.4462 231 50 245.645 50 263.711C50 281.777 65.4462 296.422 84.5 296.422ZM84.6274 290.198C100.082 290.198 112.611 278.319 112.611 263.666C112.611 249.012 100.082 237.133 84.6274 237.133C69.1727 237.133 56.6441 249.012 56.6441 263.666C56.6441 278.319 69.1727 290.198 84.6274 290.198Z" fill="white"/>
<path d="M68 -3L79 52" stroke="white" stroke-width="19"/>
<path d="M117.5 112L172 171" stroke="white" stroke-width="19"/>
<path d="M171.5 208L111.5 247" stroke="white" stroke-width="19"/>
<path d="M84 293L80 349" stroke="white" stroke-width="19"/>
<path d="M93.5 511.5L80 407" stroke="white" stroke-width="19"/>
<path d="M205.5 219.5L226 343.5" stroke="white" stroke-width="11"/>
<path d="M98.5 586.5L103.5 671.5" stroke="white" stroke-width="18"/>
<path d="M113 730.5L153.5 824" stroke="white" stroke-width="18"/>
<path d="M58.5 280.5L-11 354.5" stroke="white" stroke-width="16"/>
<path d="M207.5 370L106 384" stroke="white" stroke-width="8"/>
<path d="M200 603.5L131 685" stroke="white" stroke-width="8"/>
<path d="M1030.5 628.5L1076.5 682" stroke="white" stroke-width="11"/>
<path d="M1013.5 299L1081 349.5" stroke="white" stroke-width="11"/>
<path d="M1002 267L1046 122.5" stroke="white" stroke-width="11"/>
<path d="M996 306.5L1008 432.5" stroke="white" stroke-width="11"/>
<path d="M1120.5 392L1142.5 518.5" stroke="white" stroke-width="11"/>
<path d="M1128 195C1129.06 188.703 1150.44 50.3764 1161 -18" stroke="white" stroke-width="24"/>
<path d="M1098.5 750.5L1093.5 831" stroke="white" stroke-width="24"/>
</g>
<defs>
<clipPath id="clip0_0_1">
<rect width="1201" height="817" fill="white"/>
</clipPath>
</defs>
</svg>
