<svg width="1201" height="817" viewBox="0 0 1201 817" fill="none" xmlns="http://www.w3.org/2000/svg">
<rect width="1201" height="817" fill="#1E1E1E"/>
<g clip-path="url(#clip0_0_1)">
<rect width="815.78" height="1199.71" transform="translate(1200.51 0.803253) rotate(90.0384)" fill="black"/>
<path fill-rule="evenodd" clip-rule="evenodd" d="M1120.77 195.995C1120.76 212.824 1133.65 226.475 1149.57 226.486C1165.49 226.496 1178.4 212.862 1178.41 196.033C1178.42 179.204 1165.53 165.553 1149.61 165.543C1133.69 165.532 1120.78 179.166 1120.77 195.995ZM1126.42 195.999C1126.41 209.053 1136.78 219.642 1149.57 219.651C1162.37 219.659 1172.75 209.083 1172.76 196.029C1172.77 182.975 1162.4 172.386 1149.61 172.377C1136.81 172.369 1126.43 182.945 1126.42 195.999Z" fill="white"/>
<path fill-rule="evenodd" clip-rule="evenodd" d="M900.021 287.471C900.009 304.3 912.904 317.951 928.823 317.962C944.741 317.972 957.655 304.338 957.666 287.509C957.678 270.68 944.783 257.029 928.864 257.019C912.946 257.008 900.032 270.643 900.021 287.471ZM905.672 287.475C905.663 300.529 916.03 311.119 928.827 311.127C941.625 311.135 952.006 300.56 952.015 287.505C952.024 274.451 941.657 263.862 928.86 263.854C916.063 263.845 905.681 274.421 905.672 287.475Z" fill="white"/>
<path fill-rule="evenodd" clip-rule="evenodd" d="M988.021 126.471C988.009 143.3 1000.9 156.951 1016.82 156.962C1032.74 156.972 1045.65 143.338 1045.67 126.509C1045.68 109.68 1032.78 96.0293 1016.86 96.0189C1000.95 96.0085 988.032 109.643 988.021 126.471ZM993.672 126.475C993.663 139.529 1004.03 150.119 1016.83 150.127C1029.62 150.135 1040.01 139.56 1040.01 126.505C1040.02 113.451 1029.66 102.862 1016.86 102.854C1004.06 102.845 993.681 113.421 993.672 126.475Z" fill="white"/>
<path fill-rule="evenodd" clip-rule="evenodd" d="M1040.02 657.471C1040.01 674.3 1052.9 687.951 1068.82 687.962C1084.74 687.972 1097.65 674.338 1097.67 657.509C1097.68 640.68 1084.78 627.029 1068.86 627.019C1052.95 627.008 1040.03 640.642 1040.02 657.471ZM1045.67 657.475C1045.66 670.529 1056.03 681.119 1068.83 681.127C1081.62 681.135 1092.01 670.56 1092.01 657.505C1092.02 644.451 1081.66 633.862 1068.86 633.854C1056.06 633.845 1045.68 644.421 1045.67 657.475Z" fill="white"/>
<path fill-rule="evenodd" clip-rule="evenodd" d="M871.021 568.471C871.009 585.3 883.904 598.951 899.823 598.962C915.741 598.972 928.655 585.338 928.666 568.509C928.678 551.68 915.783 538.029 899.865 538.019C883.946 538.008 871.032 551.643 871.021 568.471ZM876.672 568.475C876.663 581.529 887.03 592.119 899.827 592.127C912.625 592.135 923.006 581.56 923.015 568.506C923.024 555.451 912.657 544.862 899.86 544.854C887.063 544.845 876.681 555.421 876.672 568.475Z" fill="white"/>
<path fill-rule="evenodd" clip-rule="evenodd" d="M48.1454 575.948C48.1339 592.777 61.029 606.428 76.9474 606.438C92.8658 606.448 105.78 592.814 105.791 575.985C105.803 559.157 92.9075 545.506 76.9891 545.495C61.0707 545.485 48.1569 559.119 48.1454 575.948ZM53.797 575.951C53.7881 589.006 64.155 599.595 76.9521 599.603C89.7493 599.612 100.131 589.036 100.14 575.982C100.148 562.928 89.7816 552.338 76.9844 552.33C64.1873 552.321 53.8059 562.897 53.797 575.951Z" fill="white"/>
<path fill-rule="evenodd" clip-rule="evenodd" d="M145.021 430.471C145.009 447.3 157.904 460.951 173.823 460.962C189.741 460.972 202.655 447.338 202.666 430.509C202.678 413.68 189.783 400.029 173.864 400.019C157.946 400.008 145.032 413.643 145.021 430.471ZM150.672 430.475C150.663 443.529 161.03 454.119 173.828 454.127C186.625 454.135 197.006 443.56 197.015 430.505C197.024 417.451 186.657 406.862 173.86 406.854C161.063 406.845 150.681 417.421 150.672 430.475Z" fill="white"/>
<path fill-rule="evenodd" clip-rule="evenodd" d="M17.401 190.729C17.3895 207.557 30.2846 221.208 46.203 221.219C62.1214 221.229 75.0352 207.595 75.0467 190.766C75.0582 173.937 62.1631 160.286 46.2447 160.276C30.3263 160.266 17.4125 173.9 17.401 190.729ZM23.0526 190.732C23.0437 203.786 33.4106 214.376 46.2078 214.384C59.0049 214.393 69.3863 203.817 69.3952 190.763C69.4041 177.708 59.0372 167.119 46.2401 167.111C33.4429 167.102 23.0616 177.678 23.0526 190.732Z" fill="white"/>
<path fill-rule="evenodd" clip-rule="evenodd" d="M66.5988 89.1571C66.5836 111.388 84.1213 129.421 105.77 129.435C127.419 129.449 144.982 111.439 144.997 89.2085C145.012 66.9777 127.474 48.9446 105.825 48.9305C84.1763 48.9163 66.614 66.9264 66.5988 89.1571ZM74.2849 89.1622C74.2731 106.407 88.3723 120.395 105.776 120.407C123.181 120.418 137.299 106.448 137.311 89.2035C137.323 71.9591 123.223 57.9704 105.819 57.959C88.415 57.9476 74.2966 71.9178 74.2849 89.1622Z" fill="white"/>
<path fill-rule="evenodd" clip-rule="evenodd" d="M130.028 234.252C130.012 256.483 147.55 274.516 169.199 274.53C190.848 274.545 208.41 256.535 208.426 234.304C208.441 212.073 190.903 194.04 169.254 194.026C147.605 194.012 130.043 212.022 130.028 234.252ZM137.714 234.257C137.702 251.502 151.801 265.49 169.205 265.502C186.609 265.513 200.728 251.543 200.74 234.299C200.751 217.054 186.652 203.066 169.248 203.054C151.844 203.043 137.725 217.013 137.714 234.257Z" fill="white"/>
<path fill-rule="evenodd" clip-rule="evenodd" d="M12.0275 466.1C12.0123 488.331 29.55 506.364 51.199 506.378C72.8481 506.392 90.4104 488.382 90.4256 466.151C90.4408 443.921 72.9031 425.888 51.2541 425.873C29.6051 425.859 12.0427 443.869 12.0275 466.1ZM19.7136 466.105C19.7018 483.35 33.8011 497.338 51.2052 497.35C68.6094 497.361 82.7277 483.391 82.7395 466.146C82.7513 448.902 68.6521 434.913 51.2479 434.902C33.8438 434.891 19.7254 448.861 19.7136 466.105Z" fill="white"/>
<path fill-rule="evenodd" clip-rule="evenodd" d="M31.0275 749.252C31.0123 771.483 48.55 789.516 70.199 789.53C91.8481 789.545 109.41 771.535 109.426 749.304C109.441 727.073 91.9031 709.04 70.2541 709.026C48.6051 709.012 31.0427 727.022 31.0275 749.252ZM38.7136 749.257C38.7018 766.502 52.8011 780.49 70.2052 780.502C87.6094 780.513 101.728 766.543 101.74 749.299C101.751 732.054 87.6521 718.066 70.2479 718.054C52.8438 718.043 38.7254 732.013 38.7136 749.257Z" fill="white"/>
<path fill-rule="evenodd" clip-rule="evenodd" d="M106.028 647.252C106.012 669.483 123.55 687.516 145.199 687.53C166.848 687.545 184.41 669.535 184.426 647.304C184.441 625.073 166.903 607.04 145.254 607.026C123.605 607.011 106.043 625.022 106.028 647.252ZM113.714 647.257C113.702 664.502 127.801 678.49 145.205 678.502C162.609 678.513 176.728 664.543 176.74 647.299C176.751 630.054 162.652 616.066 145.248 616.054C127.844 616.043 113.725 630.013 113.714 647.257Z" fill="white"/>
<path fill-rule="evenodd" clip-rule="evenodd" d="M1042.38 518.014C1042.36 540.245 1059.9 558.278 1081.55 558.292C1103.2 558.307 1120.76 540.297 1120.77 518.066C1120.79 495.835 1103.25 477.802 1081.6 477.788C1059.95 477.773 1042.39 495.784 1042.38 518.014ZM1050.06 518.019C1050.05 535.264 1064.15 549.252 1081.55 549.264C1098.96 549.275 1113.08 535.305 1113.09 518.061C1113.1 500.816 1099 486.828 1081.6 486.816C1064.19 486.805 1050.07 500.775 1050.06 518.019Z" fill="white"/>
<path fill-rule="evenodd" clip-rule="evenodd" d="M1042.38 518.014C1042.36 540.245 1059.9 558.278 1081.55 558.292C1103.2 558.307 1120.76 540.297 1120.77 518.066C1120.79 495.835 1103.25 477.802 1081.6 477.788C1059.95 477.773 1042.39 495.784 1042.38 518.014ZM1050.06 518.019C1050.05 535.264 1064.15 549.252 1081.55 549.264C1098.96 549.275 1113.08 535.305 1113.09 518.061C1113.1 500.816 1099 486.828 1081.6 486.816C1064.19 486.805 1050.07 500.775 1050.06 518.019Z" fill="white"/>
<path fill-rule="evenodd" clip-rule="evenodd" d="M924.028 430.252C924.012 452.483 941.55 470.516 963.199 470.53C984.848 470.545 1002.41 452.535 1002.43 430.304C1002.44 408.073 984.903 390.04 963.254 390.026C941.605 390.011 924.043 408.022 924.028 430.252ZM931.714 430.257C931.702 447.502 945.801 461.49 963.205 461.502C980.609 461.513 994.728 447.543 994.74 430.299C994.751 413.054 980.652 399.066 963.248 399.054C945.844 399.043 931.725 413.013 931.714 430.257Z" fill="white"/>
<path fill-rule="evenodd" clip-rule="evenodd" d="M1075.43 59.0619C1075.41 81.2927 1092.95 99.3258 1114.6 99.34C1136.25 99.3542 1153.81 81.3441 1153.82 59.1133C1153.84 36.8825 1136.3 18.8494 1114.65 18.8352C1093 18.821 1075.44 36.8311 1075.43 59.0619ZM1083.11 59.0669C1083.1 76.3114 1097.2 90.3 1114.6 90.3114C1132.01 90.3228 1146.13 76.3527 1146.14 59.1082C1146.15 41.8638 1132.05 27.8752 1114.65 27.8638C1097.24 27.8524 1083.12 41.8225 1083.11 59.0669Z" fill="white"/>
<path fill-rule="evenodd" clip-rule="evenodd" d="M1075.43 385.595C1075.41 407.826 1092.95 425.859 1114.6 425.873C1136.25 425.888 1153.81 407.877 1153.82 385.647C1153.84 363.416 1136.3 345.383 1114.65 345.369C1093 345.354 1075.44 363.364 1075.43 385.595ZM1083.11 385.6C1083.1 402.845 1097.2 416.833 1114.6 416.845C1132.01 416.856 1146.13 402.886 1146.14 385.642C1146.15 368.397 1132.05 354.409 1114.65 354.397C1097.24 354.386 1083.12 368.356 1083.11 385.6Z" fill="white"/>
<path fill-rule="evenodd" clip-rule="evenodd" d="M997.028 244.148C997.012 266.378 1014.55 284.411 1036.2 284.426C1057.85 284.44 1075.41 266.43 1075.43 244.199C1075.44 221.968 1057.9 203.935 1036.25 203.921C1014.61 203.907 997.043 221.917 997.028 244.148ZM1004.71 244.153C1004.7 261.397 1018.8 275.386 1036.21 275.397C1053.61 275.409 1067.73 261.438 1067.74 244.194C1067.75 226.95 1053.65 212.961 1036.25 212.95C1018.84 212.938 1004.73 226.908 1004.71 244.153Z" fill="white"/>
<path fill-rule="evenodd" clip-rule="evenodd" d="M929.028 728.252C929.012 750.483 946.55 768.516 968.199 768.53C989.848 768.545 1007.41 750.535 1007.43 728.304C1007.44 706.073 989.903 688.04 968.254 688.026C946.605 688.012 929.043 706.022 929.028 728.252ZM936.714 728.257C936.702 745.502 950.801 759.49 968.205 759.502C985.609 759.513 999.728 745.543 999.74 728.299C999.751 711.054 985.652 697.066 968.248 697.054C950.844 697.043 936.725 711.013 936.714 728.257Z" fill="white"/>
<path fill-rule="evenodd" clip-rule="evenodd" d="M28.0275 318.252C28.0123 340.483 45.55 358.516 67.199 358.53C88.8481 358.545 106.41 340.535 106.426 318.304C106.441 296.073 88.9031 278.04 67.2541 278.026C45.6051 278.011 28.0427 296.022 28.0275 318.252ZM35.7136 318.257C35.7018 335.502 49.801 349.49 67.2051 349.502C84.6093 349.513 98.7277 335.543 98.7394 318.299C98.7512 301.054 84.652 287.066 67.2479 287.054C49.8437 287.043 35.7253 301.013 35.7136 318.257Z" fill="white"/>
<line y1="-7" x2="56.5569" y2="-7" transform="matrix(-0.58437 0.811487 -0.823067 -0.567945 86.5551 119.629)" stroke="white" stroke-width="14"/>
<line x1="124.476" y1="123.343" x2="156.476" y2="201.343" stroke="white" stroke-width="14"/>
<line y1="-7" x2="64.0292" y2="-7" transform="matrix(0.876295 -0.481775 0.497661 0.867371 1071.56 244.524)" stroke="white" stroke-width="14"/>
<line x1="955.604" y1="277.27" x2="1004.6" y2="259.423" stroke="white" stroke-width="14"/>
<line x1="935.818" y1="312.414" x2="955.818" y2="398.414" stroke="white" stroke-width="14"/>
<line x1="954.291" y1="466.069" x2="914.291" y2="548.069" stroke="white" stroke-width="14"/>
<line x1="906.261" y1="595.87" x2="955.261" y2="693.87" stroke="white" stroke-width="14"/>
<line y1="-7" x2="64.9292" y2="-7" transform="matrix(0.402479 -0.915429 0.921556 0.388245 123.448 59.4381)" stroke="white" stroke-width="14"/>
<line x1="87.0554" y1="344.158" x2="155.055" y2="415.158" stroke="white" stroke-width="14"/>
<line x1="84.508" y1="464.459" x2="147.508" y2="440.459" stroke="white" stroke-width="14"/>
<line x1="100.195" y1="724.088" x2="131.195" y2="678.088" stroke="white" stroke-width="14"/>
<line x1="151.061" y1="616.078" x2="172.061" y2="458.078" stroke="white" stroke-width="14"/>
<line y1="-7" x2="79.6384" y2="-7" transform="matrix(0.299188 0.954194 -0.957707 0.287744 1114.6 95.5524)" stroke="white" stroke-width="14"/>
<line x1="1086.07" y1="78.6956" x2="1039.9" y2="111.686" stroke="white" stroke-width="14"/>
<line y1="-7" x2="90.8252" y2="-7" transform="matrix(0.583913 0.811816 -0.823382 0.567488 1046.19 277.629)" stroke="white" stroke-width="14"/>
<line y1="-7" x2="50.1005" y2="-7" transform="matrix(-0.276144 -0.961116 0.964128 -0.265436 75.0259 549.238)" stroke="white" stroke-width="14"/>
<line y1="-7" x2="78.984" y2="-7" transform="matrix(0.136237 -0.990676 0.991429 0.130644 1075.4 632)" stroke="white" stroke-width="14"/>
<line y1="-7" x2="68.4397" y2="-7" transform="matrix(0.291992 -0.956421 0.959774 0.280773 1086.16 485.286)" stroke="white" stroke-width="14"/>
<line x1="52.8096" y1="219.379" x2="67.8096" y2="282.379" stroke="white" stroke-width="14"/>
<line y1="-7" x2="31.5266" y2="-7" transform="matrix(0.365696 0.930734 -0.935868 0.35235 1086.16 0)" stroke="white" stroke-width="14"/>
</g>
<defs>
<clipPath id="clip0_0_1">
<rect width="815.78" height="1199.71" fill="white" transform="translate(1200.51 0.803253) rotate(90.0384)"/>
</clipPath>
</defs>
</svg>
